%TF.GenerationSoftware,KiCad,Pcbnew,(6.0.5)*%
%TF.CreationDate,2022-06-01T12:58:50-07:00*%
%TF.ProjectId,hannah_montana,68616e6e-6168-45f6-9d6f-6e74616e612e,rev?*%
%TF.SameCoordinates,Original*%
%TF.FileFunction,Soldermask,Bot*%
%TF.FilePolarity,Negative*%
%FSLAX46Y46*%
G04 Gerber Fmt 4.6, Leading zero omitted, Abs format (unit mm)*
G04 Created by KiCad (PCBNEW (6.0.5)) date 2022-06-01 12:58:50*
%MOMM*%
%LPD*%
G01*
G04 APERTURE LIST*
G04 Aperture macros list*
%AMHorizOval*
0 Thick line with rounded ends*
0 $1 width*
0 $2 $3 position (X,Y) of the first rounded end (center of the circle)*
0 $4 $5 position (X,Y) of the second rounded end (center of the circle)*
0 Add line between two ends*
20,1,$1,$2,$3,$4,$5,0*
0 Add two circle primitives to create the rounded ends*
1,1,$1,$2,$3*
1,1,$1,$4,$5*%
%AMRotRect*
0 Rectangle, with rotation*
0 The origin of the aperture is its center*
0 $1 length*
0 $2 width*
0 $3 Rotation angle, in degrees counterclockwise*
0 Add horizontal line*
21,1,$1,$2,0,0,$3*%
G04 Aperture macros list end*
%ADD10R,2.550000X2.500000*%
%ADD11C,3.987800*%
%ADD12C,1.750000*%
%ADD13C,3.000000*%
%ADD14C,3.048000*%
%ADD15C,1.270000*%
%ADD16R,1.270000X1.270000*%
%ADD17HorizOval,1.600000X0.000000X0.000000X0.000000X0.000000X0*%
%ADD18RotRect,1.600000X1.600000X135.000000*%
%ADD19C,2.300000*%
%ADD20O,1.397000X1.778000*%
%ADD21C,2.000000*%
%ADD22R,2.000000X3.200000*%
%ADD23R,2.000000X2.000000*%
G04 APERTURE END LIST*
D10*
%TO.C,MX6*%
X110617000Y-14763750D03*
X97690000Y-17303750D03*
D11*
X104775000Y-19843750D03*
D12*
X109855000Y-19843750D03*
X99695000Y-19843750D03*
D13*
X100965000Y-17303750D03*
X107315000Y-14763750D03*
%TD*%
D10*
%TO.C,MX9*%
X167767000Y-14763750D03*
X154840000Y-17303750D03*
D12*
X167005000Y-19843750D03*
X156845000Y-19843750D03*
D11*
X161925000Y-19843750D03*
D13*
X158115000Y-17303750D03*
X164465000Y-14763750D03*
%TD*%
D10*
%TO.C,MX3*%
X53467000Y-14763750D03*
X40540000Y-17303750D03*
D11*
X47625000Y-19843750D03*
D13*
X43815000Y-17303750D03*
X50165000Y-14763750D03*
D12*
X42545000Y-19843750D03*
X52705000Y-19843750D03*
%TD*%
D10*
%TO.C,MX8*%
X148717000Y-14763750D03*
X135790000Y-17303750D03*
D13*
X145415000Y-14763750D03*
X139065000Y-17303750D03*
D12*
X147955000Y-19843750D03*
D11*
X142875000Y-19843750D03*
D12*
X137795000Y-19843750D03*
%TD*%
D10*
%TO.C,MX5*%
X91567000Y-14763750D03*
X78640000Y-17303750D03*
D11*
X85725000Y-19843750D03*
D13*
X81915000Y-17303750D03*
D12*
X90805000Y-19843750D03*
X80645000Y-19843750D03*
D13*
X88265000Y-14763750D03*
%TD*%
D10*
%TO.C,MX10*%
X193960750Y-24288750D03*
X181033750Y-26828750D03*
D14*
X181133750Y-17430750D03*
D11*
X196373750Y-17430750D03*
D12*
X193198750Y-29368750D03*
D14*
X181133750Y-41306750D03*
D13*
X184308750Y-26828750D03*
D12*
X183038750Y-29368750D03*
D13*
X190658750Y-24288750D03*
D11*
X196373750Y-41306750D03*
X188118750Y-29368750D03*
%TD*%
D15*
%TO.C,U1*%
X218757500Y-4127500D03*
X218757500Y-6667500D03*
X218757500Y-9207500D03*
X218757500Y-11747500D03*
X218757500Y-14287500D03*
X218757500Y-16827500D03*
X218757500Y-19367500D03*
X218757500Y-21907500D03*
X218757500Y-24447500D03*
X218757500Y-27057500D03*
X218757500Y-29597500D03*
X218757500Y-32137500D03*
X203517500Y-32137500D03*
X203517500Y-29597500D03*
X203517500Y-27057500D03*
X203517500Y-24447500D03*
X203517500Y-21907500D03*
X203517500Y-19367500D03*
X203517500Y-16827500D03*
X203517500Y-14287500D03*
X203517500Y-11747500D03*
X203517500Y-9207500D03*
X203517500Y-6667500D03*
D16*
X203517500Y-4127500D03*
%TD*%
D17*
%TO.C,D20*%
X78749346Y-2549346D03*
D18*
X84137500Y-7937500D03*
%TD*%
D19*
%TO.C,SW1*%
X214312500Y-44450000D03*
X207812500Y-44450000D03*
%TD*%
D10*
%TO.C,MX23*%
X96329500Y-52863750D03*
X83402500Y-55403750D03*
D14*
X102425500Y-64928750D03*
D13*
X93027500Y-52863750D03*
D12*
X95567500Y-57943750D03*
D11*
X102425500Y-49688750D03*
X78549500Y-49688750D03*
D12*
X85407500Y-57943750D03*
D11*
X90487500Y-57943750D03*
D14*
X78549500Y-64928750D03*
D13*
X86677500Y-55403750D03*
%TD*%
D10*
%TO.C,MX19*%
X172529500Y-33813750D03*
X159602500Y-36353750D03*
D11*
X166687500Y-38893750D03*
D12*
X171767500Y-38893750D03*
X161607500Y-38893750D03*
D13*
X162877500Y-36353750D03*
X169227500Y-33813750D03*
%TD*%
D17*
%TO.C,D17*%
X66843096Y-2549346D03*
D18*
X72231250Y-7937500D03*
%TD*%
D17*
%TO.C,D2*%
X7311846Y-2549346D03*
D18*
X12700000Y-7937500D03*
%TD*%
D10*
%TO.C,MX4*%
X72517000Y-14763750D03*
X59590000Y-17303750D03*
D12*
X61595000Y-19843750D03*
D11*
X66675000Y-19843750D03*
D13*
X62865000Y-17303750D03*
X69215000Y-14763750D03*
D12*
X71755000Y-19843750D03*
%TD*%
D17*
%TO.C,D10*%
X39061846Y-2549346D03*
D18*
X44450000Y-7937500D03*
%TD*%
D17*
%TO.C,D28*%
X110499346Y-2549346D03*
D18*
X115887500Y-7937500D03*
%TD*%
D17*
%TO.C,D13*%
X50968096Y-2549346D03*
D18*
X56356250Y-7937500D03*
%TD*%
D17*
%TO.C,D7*%
X27155596Y-2549346D03*
D18*
X32543750Y-7937500D03*
%TD*%
D10*
%TO.C,MX22*%
X67754500Y-52863750D03*
X54827500Y-55403750D03*
D12*
X56832500Y-57943750D03*
D13*
X64452500Y-52863750D03*
X58102500Y-55403750D03*
D12*
X66992500Y-57943750D03*
D11*
X61912500Y-57943750D03*
%TD*%
D17*
%TO.C,D3*%
X11280596Y-2549346D03*
D18*
X16668750Y-7937500D03*
%TD*%
D17*
%TO.C,D1*%
X3343096Y-2549346D03*
D18*
X8731250Y-7937500D03*
%TD*%
D17*
%TO.C,D12*%
X46999346Y-2549346D03*
D18*
X52387500Y-7937500D03*
%TD*%
D10*
%TO.C,MX18*%
X153479500Y-33813750D03*
X140552500Y-36353750D03*
D11*
X147637500Y-38893750D03*
D13*
X143827500Y-36353750D03*
X150177500Y-33813750D03*
D12*
X142557500Y-38893750D03*
X152717500Y-38893750D03*
%TD*%
D17*
%TO.C,D24*%
X94624346Y-2549346D03*
D18*
X100012500Y-7937500D03*
%TD*%
D17*
%TO.C,D16*%
X62874346Y-2549346D03*
D18*
X68262500Y-7937500D03*
%TD*%
D10*
%TO.C,MX20*%
X29654500Y-52863750D03*
X16727500Y-55403750D03*
D13*
X20002500Y-55403750D03*
D12*
X18732500Y-57943750D03*
X28892500Y-57943750D03*
D11*
X23812500Y-57943750D03*
D13*
X26352500Y-52863750D03*
%TD*%
D10*
%TO.C,MX25*%
X143954500Y-52863750D03*
X131027500Y-55403750D03*
D12*
X143192500Y-57943750D03*
D11*
X138112500Y-57943750D03*
D13*
X140652500Y-52863750D03*
D12*
X133032500Y-57943750D03*
D13*
X134302500Y-55403750D03*
%TD*%
D10*
%TO.C,MX15*%
X96329500Y-33813750D03*
X83402500Y-36353750D03*
D13*
X93027500Y-33813750D03*
D12*
X85407500Y-38893750D03*
D11*
X90487500Y-38893750D03*
D13*
X86677500Y-36353750D03*
D12*
X95567500Y-38893750D03*
%TD*%
D10*
%TO.C,MX17*%
X134429500Y-33813750D03*
X121502500Y-36353750D03*
D11*
X128587500Y-38893750D03*
D13*
X131127500Y-33813750D03*
D12*
X133667500Y-38893750D03*
X123507500Y-38893750D03*
D13*
X124777500Y-36353750D03*
%TD*%
D10*
%TO.C,MX21*%
X48704500Y-52863750D03*
X35777500Y-55403750D03*
D12*
X47942500Y-57943750D03*
D13*
X39052500Y-55403750D03*
D11*
X42862500Y-57943750D03*
D12*
X37782500Y-57943750D03*
D13*
X45402500Y-52863750D03*
%TD*%
D10*
%TO.C,MX27*%
X182054500Y-52863750D03*
X169127500Y-55403750D03*
D12*
X181292500Y-57943750D03*
X171132500Y-57943750D03*
D11*
X176212500Y-57943750D03*
D13*
X172402500Y-55403750D03*
X178752500Y-52863750D03*
%TD*%
D17*
%TO.C,D11*%
X43030596Y-2549346D03*
D18*
X48418750Y-7937500D03*
%TD*%
D10*
%TO.C,MX13*%
X58229500Y-33813750D03*
X45302500Y-36353750D03*
D12*
X47307500Y-38893750D03*
D11*
X52387500Y-38893750D03*
D13*
X54927500Y-33813750D03*
X48577500Y-36353750D03*
D12*
X57467500Y-38893750D03*
%TD*%
D10*
%TO.C,MX2*%
X34417000Y-14763750D03*
X21490000Y-17303750D03*
D13*
X31115000Y-14763750D03*
X24765000Y-17303750D03*
D12*
X23495000Y-19843750D03*
X33655000Y-19843750D03*
D11*
X28575000Y-19843750D03*
%TD*%
D10*
%TO.C,MX7*%
X129667000Y-14763750D03*
X116740000Y-17303750D03*
D11*
X123825000Y-19843750D03*
D12*
X118745000Y-19843750D03*
D13*
X120015000Y-17303750D03*
D12*
X128905000Y-19843750D03*
D13*
X126365000Y-14763750D03*
%TD*%
D17*
%TO.C,D27*%
X106530596Y-2549346D03*
D18*
X111918750Y-7937500D03*
%TD*%
D17*
%TO.C,D9*%
X35093096Y-2549346D03*
D18*
X40481250Y-7937500D03*
%TD*%
D17*
%TO.C,D25*%
X98593096Y-2549346D03*
D18*
X103981250Y-7937500D03*
%TD*%
D10*
%TO.C,MX26*%
X163004500Y-52863750D03*
X150077500Y-55403750D03*
D13*
X153352500Y-55403750D03*
D12*
X152082500Y-57943750D03*
X162242500Y-57943750D03*
D13*
X159702500Y-52863750D03*
D11*
X157162500Y-57943750D03*
%TD*%
D10*
%TO.C,MX11*%
X17748250Y-33813750D03*
X4821250Y-36353750D03*
D13*
X14446250Y-33813750D03*
D12*
X6826250Y-38893750D03*
D13*
X8096250Y-36353750D03*
D11*
X11906250Y-38893750D03*
D12*
X16986250Y-38893750D03*
%TD*%
D20*
%TO.C,J1*%
X215037500Y-38893750D03*
X212487500Y-38893750D03*
X209937500Y-38893750D03*
X207387500Y-38893750D03*
%TD*%
D17*
%TO.C,D22*%
X86686846Y-2549346D03*
D18*
X92075000Y-7937500D03*
%TD*%
D10*
%TO.C,MX24*%
X124904500Y-52863750D03*
X111977500Y-55403750D03*
D13*
X121602500Y-52863750D03*
D11*
X119062500Y-57943750D03*
D12*
X124142500Y-57943750D03*
X113982500Y-57943750D03*
D13*
X115252500Y-55403750D03*
%TD*%
D17*
%TO.C,D14*%
X54936846Y-2549346D03*
D18*
X60325000Y-7937500D03*
%TD*%
D10*
%TO.C,MX14*%
X77279500Y-33813750D03*
X64352500Y-36353750D03*
D13*
X73977500Y-33813750D03*
D11*
X71437500Y-38893750D03*
D12*
X66357500Y-38893750D03*
X76517500Y-38893750D03*
D13*
X67627500Y-36353750D03*
%TD*%
D21*
%TO.C,EC1*%
X208637500Y-50943750D03*
X213637500Y-50943750D03*
D22*
X216737500Y-57943750D03*
X205537500Y-57943750D03*
D21*
X211137500Y-65443750D03*
X213637500Y-65443750D03*
D23*
X208637500Y-65443750D03*
%TD*%
D10*
%TO.C,MX12*%
X39179500Y-33813750D03*
X26252500Y-36353750D03*
D13*
X29527500Y-36353750D03*
D12*
X38417500Y-38893750D03*
D13*
X35877500Y-33813750D03*
D12*
X28257500Y-38893750D03*
D11*
X33337500Y-38893750D03*
%TD*%
D17*
%TO.C,D23*%
X90655596Y-2549346D03*
D18*
X96043750Y-7937500D03*
%TD*%
D17*
%TO.C,D4*%
X15249346Y-2549346D03*
D18*
X20637500Y-7937500D03*
%TD*%
D17*
%TO.C,D19*%
X74780596Y-2549346D03*
D18*
X80168750Y-7937500D03*
%TD*%
D17*
%TO.C,D21*%
X82718096Y-2549346D03*
D18*
X88106250Y-7937500D03*
%TD*%
D10*
%TO.C,MX16*%
X115379500Y-33813750D03*
X102452500Y-36353750D03*
D12*
X104457500Y-38893750D03*
X114617500Y-38893750D03*
D13*
X105727500Y-36353750D03*
X112077500Y-33813750D03*
D11*
X109537500Y-38893750D03*
%TD*%
D17*
%TO.C,D8*%
X31124346Y-2549346D03*
D18*
X36512500Y-7937500D03*
%TD*%
D17*
%TO.C,D6*%
X23186846Y-2549346D03*
D18*
X28575000Y-7937500D03*
%TD*%
D17*
%TO.C,D5*%
X19218096Y-2549346D03*
D18*
X24606250Y-7937500D03*
%TD*%
D10*
%TO.C,MX1*%
X15367000Y-14763750D03*
X2440000Y-17303750D03*
D13*
X12065000Y-14763750D03*
D12*
X4445000Y-19843750D03*
X14605000Y-19843750D03*
D13*
X5715000Y-17303750D03*
D11*
X9525000Y-19843750D03*
%TD*%
D17*
%TO.C,D26*%
X102561846Y-2549346D03*
D18*
X107950000Y-7937500D03*
%TD*%
D17*
%TO.C,D15*%
X58905596Y-2549346D03*
D18*
X64293750Y-7937500D03*
%TD*%
D17*
%TO.C,D18*%
X70811846Y-2549346D03*
D18*
X76200000Y-7937500D03*
%TD*%
M02*
