M48
METRIC,TZ
T1C0.400
T2C0.762
T3C0.800
T4C0.813
T5C1.000
T6C1.300
T7C1.500
%
G90
G05
T1
X2381Y-19844
X2381Y-46038
X4763Y-38894
X4763Y-46038
X16669Y-45244
X16669Y-52388
X21431Y-19844
X21431Y-45244
X26194Y-38894
X26194Y-46038
X35719Y-44450
X35719Y-52388
X37306Y-20638
X37306Y-23019
X38100Y-19844
X38100Y-23813
X38894Y-19050
X38894Y-24606
X40481Y-19844
X40481Y-44450
X45244Y-38894
X45244Y-42863
X50800Y-8731
X54769Y-8731
X54769Y-44450
X54769Y-52388
X55563Y-21431
X55563Y-24606
X56353Y-20635
X56353Y-25397
X57150Y-19844
X57150Y-26194
X57944Y-19050
X57944Y-26988
X58738Y-8731
X59531Y-19844
X59531Y-44450
X62706Y-8731
X64294Y-38894
X64294Y-42863
X66675Y-8731
X74613Y-29369
X75406Y-30163
X76200Y-30956
X76994Y-31750
X78581Y-19844
X78581Y-43656
X80169Y-12700
X83344Y-38894
X83344Y-42069
X83344Y-43656
X83344Y-52388
X86519Y-8731
X90488Y-8731
X93663Y-21431
X93663Y-31750
X94456Y-8731
X94456Y-20638
X94456Y-30956
X95250Y-19844
X95250Y-30163
X96044Y-19050
X96044Y-29369
X97631Y-19844
X97631Y-44450
X99219Y-45244
X100012Y-46038
X100806Y-46831
X102394Y-38894
X102394Y-42863
X111919Y-46038
X111919Y-52388
X112713Y-21431
X112713Y-26194
X116681Y-19844
X116681Y-42069
X121444Y-38894
X121444Y-45244
X130175Y-12700
X130969Y-11906
X130969Y-42069
X130969Y-52388
X131763Y-11112
X132556Y-10319
X133350Y-9525
X134144Y-8731
X134144Y-50800
X134938Y-50006
X135731Y-19844
X136525Y-50800
X137319Y-50006
X138112Y-49213
X138906Y-48419
X139700Y-42863
X140494Y-38894
X140494Y-46038
X150019Y-42863
X150019Y-52388
X154781Y-19844
X154781Y-43656
X169069Y-43656
X169069Y-52388
X180975Y-29369
X180975Y-46831
X203200Y-42863
X208756Y-49213
X214313Y-15875
X214948Y-16828
X217488Y-15081
X219869Y-39688
T2
X203517Y-4127
X203517Y-6668
X203517Y-9207
X203517Y-11748
X203517Y-14288
X203517Y-16828
X203517Y-19368
X203517Y-21908
X203517Y-24447
X203517Y-27058
X203517Y-29598
X203517Y-32137
X218758Y-4127
X218758Y-6668
X218758Y-9207
X218758Y-11748
X218758Y-14288
X218758Y-16828
X218758Y-19368
X218758Y-21908
X218758Y-24447
X218758Y-27058
X218758Y-29598
X218758Y-32137
T3
X3343Y-2549
X7312Y-2549
X8731Y-7938
X11281Y-2549
X12700Y-7938
X15249Y-2549
X16669Y-7938
X19218Y-2549
X20638Y-7938
X23187Y-2549
X24606Y-7938
X27156Y-2549
X28575Y-7938
X31124Y-2549
X32544Y-7938
X35093Y-2549
X36512Y-7938
X39062Y-2549
X40481Y-7938
X43031Y-2549
X44450Y-7938
X46999Y-2549
X48419Y-7938
X50968Y-2549
X52388Y-7938
X54937Y-2549
X56356Y-7938
X58906Y-2549
X60325Y-7938
X62874Y-2549
X64294Y-7938
X66843Y-2549
X68263Y-7938
X70812Y-2549
X72231Y-7938
X74781Y-2549
X76200Y-7938
X78749Y-2549
X80169Y-7938
X82718Y-2549
X84138Y-7938
X86687Y-2549
X88106Y-7938
X90656Y-2549
X92075Y-7938
X94624Y-2549
X96044Y-7938
X98593Y-2549
X100012Y-7938
X102562Y-2549
X103981Y-7938
X106531Y-2549
X107950Y-7938
X110499Y-2549
X111919Y-7938
X115888Y-7938
T4
X207388Y-38894
X209938Y-38894
X212488Y-38894
X215038Y-38894
T5
X208638Y-50944
X208638Y-65444
X211138Y-65444
X213638Y-50944
X213638Y-65444
T6
X207813Y-44450
X214313Y-44450
T7
G00X205538Y-58594
M15
G01X205538Y-57294
M16
G05
G00X216738Y-58594
M15
G01X216738Y-57294
M16
G05
T0
M30
