%TF.GenerationSoftware,KiCad,Pcbnew,(6.0.5)*%
%TF.CreationDate,2022-06-01T12:58:50-07:00*%
%TF.ProjectId,hannah_montana,68616e6e-6168-45f6-9d6f-6e74616e612e,rev?*%
%TF.SameCoordinates,Original*%
%TF.FileFunction,Copper,L1,Top*%
%TF.FilePolarity,Positive*%
%FSLAX46Y46*%
G04 Gerber Fmt 4.6, Leading zero omitted, Abs format (unit mm)*
G04 Created by KiCad (PCBNEW (6.0.5)) date 2022-06-01 12:58:50*
%MOMM*%
%LPD*%
G01*
G04 APERTURE LIST*
G04 Aperture macros list*
%AMHorizOval*
0 Thick line with rounded ends*
0 $1 width*
0 $2 $3 position (X,Y) of the first rounded end (center of the circle)*
0 $4 $5 position (X,Y) of the second rounded end (center of the circle)*
0 Add line between two ends*
20,1,$1,$2,$3,$4,$5,0*
0 Add two circle primitives to create the rounded ends*
1,1,$1,$2,$3*
1,1,$1,$4,$5*%
%AMRotRect*
0 Rectangle, with rotation*
0 The origin of the aperture is its center*
0 $1 length*
0 $2 width*
0 $3 Rotation angle, in degrees counterclockwise*
0 Add horizontal line*
21,1,$1,$2,0,0,$3*%
G04 Aperture macros list end*
%TA.AperFunction,ComponentPad*%
%ADD10C,1.270000*%
%TD*%
%TA.AperFunction,ComponentPad*%
%ADD11R,1.270000X1.270000*%
%TD*%
%TA.AperFunction,ComponentPad*%
%ADD12HorizOval,1.600000X0.000000X0.000000X0.000000X0.000000X0*%
%TD*%
%TA.AperFunction,ComponentPad*%
%ADD13RotRect,1.600000X1.600000X135.000000*%
%TD*%
%TA.AperFunction,ComponentPad*%
%ADD14C,2.300000*%
%TD*%
%TA.AperFunction,ComponentPad*%
%ADD15O,1.397000X1.778000*%
%TD*%
%TA.AperFunction,ComponentPad*%
%ADD16C,2.000000*%
%TD*%
%TA.AperFunction,ComponentPad*%
%ADD17R,2.000000X3.200000*%
%TD*%
%TA.AperFunction,ComponentPad*%
%ADD18R,2.000000X2.000000*%
%TD*%
%TA.AperFunction,ViaPad*%
%ADD19C,0.800000*%
%TD*%
%TA.AperFunction,Conductor*%
%ADD20C,0.250000*%
%TD*%
%TA.AperFunction,Conductor*%
%ADD21C,0.500000*%
%TD*%
G04 APERTURE END LIST*
D10*
%TO.P,U1,24,RAW*%
%TO.N,unconnected-(U1-Pad24)*%
X218757500Y-4127500D03*
%TO.P,U1,23,GND*%
%TO.N,GND*%
X218757500Y-6667500D03*
%TO.P,U1,22,RST*%
%TO.N,rst*%
X218757500Y-9207500D03*
%TO.P,U1,21,VCC*%
%TO.N,VCC*%
X218757500Y-11747500D03*
%TO.P,U1,20,D21/A3(PF4)*%
%TO.N,encA*%
X218757500Y-14287500D03*
%TO.P,U1,19,D20/A2(PF5)*%
%TO.N,encB*%
X218757500Y-16827500D03*
%TO.P,U1,18,D19/A1(PF6)*%
%TO.N,col0*%
X218757500Y-19367500D03*
%TO.P,U1,17,D18/A0(PF7)*%
%TO.N,col1*%
X218757500Y-21907500D03*
%TO.P,U1,16,D15/SCLK(PB1)*%
%TO.N,col2*%
X218757500Y-24447500D03*
%TO.P,U1,15,D14/MISO(PB3)*%
%TO.N,enccol*%
X218757500Y-27057500D03*
%TO.P,U1,14,D16/MOSI(PB2)*%
%TO.N,col4*%
X218757500Y-29597500D03*
%TO.P,U1,13,D10/A10(PB6)*%
%TO.N,col5*%
X218757500Y-32137500D03*
%TO.P,U1,12,D9/A9(PB5)*%
%TO.N,unconnected-(U1-Pad12)*%
X203517500Y-32137500D03*
%TO.P,U1,11,D8/A8(PB4)*%
%TO.N,row4*%
X203517500Y-29597500D03*
%TO.P,U1,10,D7(PE6)*%
%TO.N,row3*%
X203517500Y-27057500D03*
%TO.P,U1,9,D6/A7(PD7)*%
%TO.N,row2*%
X203517500Y-24447500D03*
%TO.P,U1,8,D5(PC6)*%
%TO.N,row1*%
X203517500Y-21907500D03*
%TO.P,U1,7,D4/A6(PD4)*%
%TO.N,row0*%
X203517500Y-19367500D03*
%TO.P,U1,6,SDA*%
%TO.N,sda*%
X203517500Y-16827500D03*
%TO.P,U1,5,SCL*%
%TO.N,scl*%
X203517500Y-14287500D03*
%TO.P,U1,4,GND*%
%TO.N,GND*%
X203517500Y-11747500D03*
%TO.P,U1,3,GND*%
X203517500Y-9207500D03*
%TO.P,U1,2,RX*%
%TO.N,unconnected-(U1-Pad2)*%
X203517500Y-6667500D03*
D11*
%TO.P,U1,1,TX*%
%TO.N,unconnected-(U1-Pad1)*%
X203517500Y-4127500D03*
%TD*%
D12*
%TO.P,D20,2,A*%
%TO.N,Net-(D20-Pad2)*%
X78749346Y-2549346D03*
D13*
%TO.P,D20,1,K*%
%TO.N,row3*%
X84137500Y-7937500D03*
%TD*%
D14*
%TO.P,SW1,2,2*%
%TO.N,rst*%
X214312500Y-44450000D03*
%TO.P,SW1,1,1*%
%TO.N,GND*%
X207812500Y-44450000D03*
%TD*%
D12*
%TO.P,D17,2,A*%
%TO.N,Net-(D17-Pad2)*%
X66843096Y-2549346D03*
D13*
%TO.P,D17,1,K*%
%TO.N,row2*%
X72231250Y-7937500D03*
%TD*%
D12*
%TO.P,D2,2,A*%
%TO.N,Net-(D2-Pad2)*%
X7311846Y-2549346D03*
D13*
%TO.P,D2,1,K*%
%TO.N,row0*%
X12700000Y-7937500D03*
%TD*%
D12*
%TO.P,D10,2,A*%
%TO.N,Net-(D10-Pad2)*%
X39061846Y-2549346D03*
D13*
%TO.P,D10,1,K*%
%TO.N,row1*%
X44450000Y-7937500D03*
%TD*%
D12*
%TO.P,D28,2,A*%
%TO.N,encrow*%
X110499346Y-2549346D03*
D13*
%TO.P,D28,1,K*%
%TO.N,row4*%
X115887500Y-7937500D03*
%TD*%
D12*
%TO.P,D13,2,A*%
%TO.N,Net-(D13-Pad2)*%
X50968096Y-2549346D03*
D13*
%TO.P,D13,1,K*%
%TO.N,row2*%
X56356250Y-7937500D03*
%TD*%
D12*
%TO.P,D7,2,A*%
%TO.N,Net-(D7-Pad2)*%
X27155596Y-2549346D03*
D13*
%TO.P,D7,1,K*%
%TO.N,row1*%
X32543750Y-7937500D03*
%TD*%
D12*
%TO.P,D3,2,A*%
%TO.N,Net-(D3-Pad2)*%
X11280596Y-2549346D03*
D13*
%TO.P,D3,1,K*%
%TO.N,row0*%
X16668750Y-7937500D03*
%TD*%
D12*
%TO.P,D1,2,A*%
%TO.N,Net-(D1-Pad2)*%
X3343096Y-2549346D03*
D13*
%TO.P,D1,1,K*%
%TO.N,row0*%
X8731250Y-7937500D03*
%TD*%
D12*
%TO.P,D12,2,A*%
%TO.N,Net-(D12-Pad2)*%
X46999346Y-2549346D03*
D13*
%TO.P,D12,1,K*%
%TO.N,row1*%
X52387500Y-7937500D03*
%TD*%
D12*
%TO.P,D24,2,A*%
%TO.N,Net-(D24-Pad2)*%
X94624346Y-2549346D03*
D13*
%TO.P,D24,1,K*%
%TO.N,row3*%
X100012500Y-7937500D03*
%TD*%
D12*
%TO.P,D16,2,A*%
%TO.N,Net-(D16-Pad2)*%
X62874346Y-2549346D03*
D13*
%TO.P,D16,1,K*%
%TO.N,row2*%
X68262500Y-7937500D03*
%TD*%
D12*
%TO.P,D11,2,A*%
%TO.N,Net-(D11-Pad2)*%
X43030596Y-2549346D03*
D13*
%TO.P,D11,1,K*%
%TO.N,row1*%
X48418750Y-7937500D03*
%TD*%
D12*
%TO.P,D27,2,A*%
%TO.N,Net-(D27-Pad2)*%
X106530596Y-2549346D03*
D13*
%TO.P,D27,1,K*%
%TO.N,row4*%
X111918750Y-7937500D03*
%TD*%
D12*
%TO.P,D9,2,A*%
%TO.N,Net-(D9-Pad2)*%
X35093096Y-2549346D03*
D13*
%TO.P,D9,1,K*%
%TO.N,row1*%
X40481250Y-7937500D03*
%TD*%
D12*
%TO.P,D25,2,A*%
%TO.N,Net-(D25-Pad2)*%
X98593096Y-2549346D03*
D13*
%TO.P,D25,1,K*%
%TO.N,row4*%
X103981250Y-7937500D03*
%TD*%
D15*
%TO.P,J1,4,Pin_4*%
%TO.N,sda*%
X215037500Y-38893750D03*
%TO.P,J1,3,Pin_3*%
%TO.N,scl*%
X212487500Y-38893750D03*
%TO.P,J1,2,Pin_2*%
%TO.N,VCC*%
X209937500Y-38893750D03*
%TO.P,J1,1,Pin_1*%
%TO.N,GND*%
X207387500Y-38893750D03*
%TD*%
D12*
%TO.P,D22,2,A*%
%TO.N,Net-(D22-Pad2)*%
X86686846Y-2549346D03*
D13*
%TO.P,D22,1,K*%
%TO.N,row3*%
X92075000Y-7937500D03*
%TD*%
D12*
%TO.P,D14,2,A*%
%TO.N,Net-(D14-Pad2)*%
X54936846Y-2549346D03*
D13*
%TO.P,D14,1,K*%
%TO.N,row2*%
X60325000Y-7937500D03*
%TD*%
D16*
%TO.P,EC1,S2,S2*%
%TO.N,enccol*%
X208637500Y-50943750D03*
%TO.P,EC1,S1,S1*%
%TO.N,encrow*%
X213637500Y-50943750D03*
D17*
%TO.P,EC1,MP*%
%TO.N,N/C*%
X216737500Y-57943750D03*
X205537500Y-57943750D03*
D16*
%TO.P,EC1,C,C*%
%TO.N,GND*%
X211137500Y-65443750D03*
%TO.P,EC1,B,B*%
%TO.N,encA*%
X213637500Y-65443750D03*
D18*
%TO.P,EC1,A,A*%
%TO.N,encB*%
X208637500Y-65443750D03*
%TD*%
D12*
%TO.P,D23,2,A*%
%TO.N,Net-(D23-Pad2)*%
X90655596Y-2549346D03*
D13*
%TO.P,D23,1,K*%
%TO.N,row3*%
X96043750Y-7937500D03*
%TD*%
D12*
%TO.P,D4,2,A*%
%TO.N,Net-(D4-Pad2)*%
X15249346Y-2549346D03*
D13*
%TO.P,D4,1,K*%
%TO.N,row0*%
X20637500Y-7937500D03*
%TD*%
D12*
%TO.P,D19,2,A*%
%TO.N,Net-(D19-Pad2)*%
X74780596Y-2549346D03*
D13*
%TO.P,D19,1,K*%
%TO.N,row3*%
X80168750Y-7937500D03*
%TD*%
D12*
%TO.P,D21,2,A*%
%TO.N,Net-(D21-Pad2)*%
X82718096Y-2549346D03*
D13*
%TO.P,D21,1,K*%
%TO.N,row3*%
X88106250Y-7937500D03*
%TD*%
D12*
%TO.P,D8,2,A*%
%TO.N,Net-(D8-Pad2)*%
X31124346Y-2549346D03*
D13*
%TO.P,D8,1,K*%
%TO.N,row1*%
X36512500Y-7937500D03*
%TD*%
D12*
%TO.P,D6,2,A*%
%TO.N,Net-(D6-Pad2)*%
X23186846Y-2549346D03*
D13*
%TO.P,D6,1,K*%
%TO.N,row0*%
X28575000Y-7937500D03*
%TD*%
D12*
%TO.P,D5,2,A*%
%TO.N,Net-(D5-Pad2)*%
X19218096Y-2549346D03*
D13*
%TO.P,D5,1,K*%
%TO.N,row0*%
X24606250Y-7937500D03*
%TD*%
D12*
%TO.P,D26,2,A*%
%TO.N,Net-(D26-Pad2)*%
X102561846Y-2549346D03*
D13*
%TO.P,D26,1,K*%
%TO.N,row4*%
X107950000Y-7937500D03*
%TD*%
D12*
%TO.P,D15,2,A*%
%TO.N,Net-(D15-Pad2)*%
X58905596Y-2549346D03*
D13*
%TO.P,D15,1,K*%
%TO.N,row2*%
X64293750Y-7937500D03*
%TD*%
D12*
%TO.P,D18,2,A*%
%TO.N,Net-(D18-Pad2)*%
X70811846Y-2549346D03*
D13*
%TO.P,D18,1,K*%
%TO.N,row2*%
X76200000Y-7937500D03*
%TD*%
D19*
%TO.N,enccol*%
X208756250Y-49212500D03*
X203200000Y-42862500D03*
%TO.N,rst*%
X217487500Y-15081250D03*
%TO.N,col0*%
X2381250Y-19843750D03*
X2381250Y-46037500D03*
%TO.N,col4*%
X4762500Y-38893750D03*
X4762500Y-46037500D03*
%TO.N,col1*%
X16668750Y-52387500D03*
X16668750Y-45243750D03*
X21431250Y-19843750D03*
X21431250Y-45243750D03*
%TO.N,col5*%
X26193750Y-38893750D03*
X26193750Y-46037500D03*
%TO.N,col2*%
X35718750Y-52387500D03*
X35718750Y-44450000D03*
%TO.N,enccol*%
X54768750Y-52387500D03*
X54768750Y-44450000D03*
%TO.N,col2*%
X40481250Y-19843750D03*
X40481250Y-44450000D03*
%TO.N,col0*%
X45243750Y-38893750D03*
X45243750Y-42862500D03*
%TO.N,enccol*%
X59531250Y-19843750D03*
X59531250Y-44450000D03*
%TO.N,col1*%
X64293750Y-38893750D03*
X64293750Y-42862500D03*
%TO.N,col4*%
X78581250Y-19843750D03*
X78581250Y-43656250D03*
%TO.N,col2*%
X83343750Y-38893750D03*
X83343750Y-42068750D03*
%TO.N,col4*%
X83343750Y-52387500D03*
X83343750Y-43656250D03*
%TO.N,col5*%
X97631250Y-19843750D03*
X97631250Y-44450000D03*
%TO.N,enccol*%
X102393750Y-38893750D03*
X102393750Y-42862500D03*
%TO.N,col0*%
X116681250Y-19843750D03*
X116681250Y-42068750D03*
%TO.N,col5*%
X111918750Y-52387500D03*
X111918750Y-46037500D03*
%TO.N,col4*%
X121443750Y-38893750D03*
X121443750Y-45243750D03*
%TO.N,col1*%
X139700000Y-42862500D03*
X135731250Y-19843750D03*
%TO.N,col0*%
X130968750Y-52387500D03*
X130968750Y-42068750D03*
%TO.N,col5*%
X140493750Y-38893750D03*
X140493750Y-46037500D03*
%TO.N,col2*%
X154781250Y-19843750D03*
X154781250Y-43656250D03*
%TO.N,col1*%
X150018750Y-52387500D03*
X150018750Y-42862500D03*
%TO.N,enccol*%
X180975000Y-29368750D03*
X180975000Y-46831250D03*
%TO.N,col2*%
X169068750Y-52387500D03*
X169068750Y-43656250D03*
%TO.N,Net-(D24-Pad2)*%
X134143750Y-50800000D03*
%TO.N,Net-(D23-Pad2)*%
X134937500Y-50006250D03*
%TO.N,encrow*%
X138906250Y-48418750D03*
%TO.N,Net-(D27-Pad2)*%
X138112500Y-49212500D03*
%TO.N,Net-(D26-Pad2)*%
X137318750Y-50006250D03*
%TO.N,Net-(D25-Pad2)*%
X136525000Y-50800000D03*
%TO.N,encrow*%
X134143750Y-8731250D03*
%TO.N,Net-(D27-Pad2)*%
X133350000Y-9525000D03*
%TO.N,Net-(D26-Pad2)*%
X132556250Y-10318750D03*
%TO.N,Net-(D25-Pad2)*%
X131762500Y-11112500D03*
%TO.N,Net-(D24-Pad2)*%
X130968750Y-11906250D03*
%TO.N,Net-(D23-Pad2)*%
X130175000Y-12700000D03*
%TO.N,Net-(D22-Pad2)*%
X100806250Y-46831250D03*
%TO.N,Net-(D21-Pad2)*%
X100012500Y-46037500D03*
%TO.N,Net-(D20-Pad2)*%
X99218750Y-45243750D03*
%TO.N,Net-(D22-Pad2)*%
X94456250Y-8731250D03*
%TO.N,Net-(D21-Pad2)*%
X90487500Y-8731250D03*
%TO.N,Net-(D20-Pad2)*%
X86518750Y-8731250D03*
%TO.N,Net-(D19-Pad2)*%
X112712500Y-26193750D03*
X112712500Y-21431250D03*
%TO.N,Net-(D18-Pad2)*%
X96043750Y-29368750D03*
%TO.N,Net-(D17-Pad2)*%
X95250000Y-30162500D03*
%TO.N,Net-(D16-Pad2)*%
X94456250Y-30956250D03*
%TO.N,Net-(D15-Pad2)*%
X93662500Y-31750000D03*
%TO.N,Net-(D18-Pad2)*%
X96043750Y-19050000D03*
%TO.N,Net-(D17-Pad2)*%
X95250000Y-19843750D03*
%TO.N,Net-(D16-Pad2)*%
X94456250Y-20637500D03*
%TO.N,Net-(D15-Pad2)*%
X93662500Y-21431250D03*
X80168750Y-12700000D03*
%TO.N,Net-(D11-Pad2)*%
X74612500Y-29368750D03*
%TO.N,Net-(D12-Pad2)*%
X75406250Y-30162500D03*
%TO.N,Net-(D13-Pad2)*%
X76200000Y-30956250D03*
%TO.N,Net-(D14-Pad2)*%
X76993750Y-31750000D03*
%TO.N,Net-(D15-Pad2)*%
X66675000Y-8731250D03*
%TO.N,Net-(D14-Pad2)*%
X62706250Y-8731250D03*
%TO.N,Net-(D13-Pad2)*%
X58737500Y-8731250D03*
%TO.N,Net-(D12-Pad2)*%
X54768750Y-8731250D03*
%TO.N,Net-(D11-Pad2)*%
X50800000Y-8731250D03*
%TO.N,Net-(D10-Pad2)*%
X57943750Y-26987500D03*
%TO.N,Net-(D9-Pad2)*%
X57150000Y-26193750D03*
%TO.N,Net-(D8-Pad2)*%
X56353438Y-25397188D03*
%TO.N,Net-(D7-Pad2)*%
X55562500Y-24606250D03*
X55562500Y-21431250D03*
%TO.N,Net-(D8-Pad2)*%
X56353438Y-20634688D03*
%TO.N,Net-(D9-Pad2)*%
X57150000Y-19843750D03*
%TO.N,Net-(D10-Pad2)*%
X57943750Y-19050000D03*
%TO.N,Net-(D6-Pad2)*%
X38893750Y-24606250D03*
%TO.N,Net-(D5-Pad2)*%
X38100000Y-23812500D03*
%TO.N,Net-(D4-Pad2)*%
X37306250Y-23018750D03*
%TO.N,Net-(D6-Pad2)*%
X38893750Y-19050000D03*
%TO.N,Net-(D5-Pad2)*%
X38100000Y-19843750D03*
%TO.N,Net-(D4-Pad2)*%
X37306250Y-20637500D03*
%TO.N,encA*%
X219868750Y-39687500D03*
%TO.N,scl*%
X214312500Y-15875000D03*
%TO.N,sda*%
X214947500Y-16827500D03*
%TD*%
D20*
%TO.N,row0*%
X26590625Y-7937500D02*
G75*
G03*
X28575000Y-5953125I-5J1984380D01*
G01*
X202961858Y-18811892D02*
G75*
G02*
X202406250Y-17470477I1341442J1341392D01*
G01*
X200406251Y-3968650D02*
G75*
G02*
X202406250Y-5968748I-51J-2000050D01*
G01*
X28575049Y-5953125D02*
G75*
G02*
X30559375Y-3968749I1984351J25D01*
G01*
%TO.N,row1*%
X198399394Y-4762500D02*
X193713106Y-4762500D01*
X52387500Y-6350000D02*
G75*
G02*
X53975000Y-4762500I1587500J0D01*
G01*
X202564989Y-20955011D02*
G75*
G02*
X201612500Y-18655461I2299511J2299511D01*
G01*
X50800000Y-7937500D02*
G75*
G03*
X52387500Y-6350000I0J1587500D01*
G01*
X199612501Y-4762500D02*
G75*
G02*
X201612500Y-6762498I-1J-2000000D01*
G01*
%TO.N,Net-(D11-Pad2)*%
X72612501Y-12700000D02*
G75*
G02*
X74612500Y-14699998I-1J-2000000D01*
G01*
X57022713Y-12699975D02*
G75*
G02*
X53174957Y-11106207I-13J5441575D01*
G01*
%TO.N,Net-(D12-Pad2)*%
X73406251Y-11906250D02*
G75*
G02*
X75406250Y-13906248I49J-1999950D01*
G01*
X60188814Y-11906244D02*
G75*
G02*
X56356250Y-10318750I-14J5420044D01*
G01*
%TO.N,row2*%
X198818751Y-5556250D02*
G75*
G02*
X200818750Y-7556248I49J-1999950D01*
G01*
X202168149Y-23098101D02*
G75*
G02*
X200818750Y-19840445I3257651J3257701D01*
G01*
X75009375Y-7937500D02*
G75*
G03*
X76200000Y-6746875I25J1190600D01*
G01*
X76199950Y-6746875D02*
G75*
G02*
X77390625Y-5556250I1190650J-25D01*
G01*
%TO.N,Net-(D13-Pad2)*%
X74200001Y-11112500D02*
G75*
G02*
X76200000Y-13112498I-1J-2000000D01*
G01*
X62802548Y-11112521D02*
G75*
G02*
X59928125Y-9921875I52J4065121D01*
G01*
%TO.N,Net-(D14-Pad2)*%
X65416282Y-10318757D02*
G75*
G02*
X63500000Y-9525000I18J2710057D01*
G01*
X74993751Y-10318750D02*
G75*
G02*
X76993750Y-12318748I49J-1999950D01*
G01*
%TO.N,Net-(D15-Pad2)*%
X93662500Y-28178125D02*
X93662500Y-30559375D01*
X68030016Y-9524993D02*
G75*
G02*
X67071875Y-9128125I-16J1354993D01*
G01*
X74748685Y-9525021D02*
G75*
G02*
X78581250Y-11112500I15J-5420079D01*
G01*
%TO.N,Net-(D16-Pad2)*%
X94456250Y-27384375D02*
X94456250Y-29765625D01*
%TO.N,row3*%
X201618800Y-25158784D02*
G75*
G02*
X200025000Y-21311036I3847800J3847784D01*
G01*
X198025001Y-6350000D02*
G75*
G02*
X200025000Y-8349998I-1J-2000000D01*
G01*
X100012500Y-7143750D02*
G75*
G02*
X100806250Y-6350000I793700J50D01*
G01*
X99218750Y-7937500D02*
G75*
G03*
X100012500Y-7143750I-50J793800D01*
G01*
%TO.N,Net-(D20-Pad2)*%
X99218750Y-31750000D02*
X99218750Y-34925000D01*
X92741463Y-12700010D02*
G75*
G02*
X88893708Y-11106206I37J5441610D01*
G01*
X99218700Y-31750000D02*
G75*
G02*
X100806250Y-30162500I1587500J0D01*
G01*
X111506251Y-12700050D02*
G75*
G02*
X113506250Y-14699998I49J-1999950D01*
G01*
X111506251Y-30162550D02*
G75*
G03*
X113506250Y-28162501I-51J2000050D01*
G01*
%TO.N,Net-(D21-Pad2)*%
X100012500Y-32146875D02*
X100012500Y-34528125D01*
X112300001Y-30956200D02*
G75*
G03*
X114300000Y-28956251I-1J2000000D01*
G01*
X100012450Y-32146875D02*
G75*
G02*
X101203125Y-30956250I1190650J-25D01*
G01*
X112300001Y-11906200D02*
G75*
G02*
X114300000Y-13906248I-1J-2000000D01*
G01*
X95907564Y-11906279D02*
G75*
G02*
X92075000Y-10318750I36J5420079D01*
G01*
%TO.N,Net-(D22-Pad2)*%
X100806250Y-35756856D02*
X100806250Y-40443144D01*
X98521298Y-11112486D02*
G75*
G02*
X95646875Y-9921875I2J4065086D01*
G01*
X113093751Y-11112550D02*
G75*
G02*
X115093750Y-13112498I49J-1999950D01*
G01*
X100806200Y-33749998D02*
G75*
G02*
X102806248Y-31750000I2000000J-2D01*
G01*
X113093751Y-31750050D02*
G75*
G03*
X115093750Y-29750001I-51J2000050D01*
G01*
%TO.N,Net-(D23-Pad2)*%
X132174998Y-31750000D02*
G75*
G02*
X130175000Y-29750001I2J2000000D01*
G01*
X132937501Y-31750000D02*
G75*
G02*
X134937500Y-33749998I-1J-2000000D01*
G01*
%TO.N,Net-(D24-Pad2)*%
X132968748Y-30956250D02*
G75*
G02*
X130968750Y-28956251I-48J1999950D01*
G01*
X133731251Y-30956250D02*
G75*
G02*
X135731250Y-32956248I49J-1999950D01*
G01*
X134937500Y-50799950D02*
G75*
G03*
X135731250Y-50006250I0J793750D01*
G01*
%TO.N,row4*%
X115326233Y-7937528D02*
G75*
G03*
X116284374Y-7540624I-33J1355028D01*
G01*
X197231251Y-7143750D02*
G75*
G02*
X199231250Y-9143748I49J-1999950D01*
G01*
X116284360Y-7540610D02*
G75*
G02*
X117242516Y-7143750I958140J-958190D01*
G01*
X200825035Y-26905049D02*
G75*
G02*
X199231250Y-23057286I3847765J3847749D01*
G01*
%TO.N,Net-(D25-Pad2)*%
X136525000Y-49609375D02*
X136525000Y-50403125D01*
X133762498Y-30162500D02*
G75*
G02*
X131762500Y-28162501I2J2000000D01*
G01*
X134525001Y-30162500D02*
G75*
G02*
X136525000Y-32162498I-1J-2000000D01*
G01*
%TO.N,Net-(D26-Pad2)*%
X134556248Y-29368750D02*
G75*
G02*
X132556250Y-27368751I-48J1999950D01*
G01*
X135318751Y-29368750D02*
G75*
G02*
X137318750Y-31368748I49J-1999950D01*
G01*
%TO.N,Net-(D27-Pad2)*%
X135349998Y-28575000D02*
G75*
G02*
X133350000Y-26575001I2J2000000D01*
G01*
X136112501Y-28575000D02*
G75*
G02*
X138112500Y-30574998I-1J-2000000D01*
G01*
%TO.N,encrow*%
X136143748Y-27781250D02*
G75*
G02*
X134143750Y-25781251I-48J1999950D01*
G01*
X136906251Y-27781250D02*
G75*
G02*
X138906250Y-29781248I49J-1999950D01*
G01*
%TO.N,encA*%
X219717012Y-15925487D02*
G75*
G03*
X219237254Y-14767256I-1638012J-13D01*
G01*
X219792872Y-39611638D02*
G75*
G02*
X219717011Y-39428465I183128J183138D01*
G01*
D21*
%TO.N,GND*%
X207168750Y-36550606D02*
X207168750Y-41236894D01*
X204390625Y-11906250D02*
X203596875Y-11906250D01*
X207565610Y-44053140D02*
G75*
G02*
X207168750Y-43094983I958190J958140D01*
G01*
X211518751Y-11906250D02*
G75*
G03*
X213518750Y-9906251I-51J2000050D01*
G01*
X203424506Y-11906319D02*
G75*
G02*
X203358751Y-11747501I-6J93019D01*
G01*
X208523766Y-44450028D02*
G75*
G02*
X207565626Y-44053124I34J1355028D01*
G01*
X209550000Y-44450000D02*
G75*
G02*
X211137500Y-46037500I0J-1587500D01*
G01*
X218056743Y-6349968D02*
G75*
G02*
X218440000Y-6508750I-43J-542032D01*
G01*
X203358727Y-11747477D02*
G75*
G03*
X203517500Y-11364243I-383227J383277D01*
G01*
X218678125Y-6667490D02*
G75*
G02*
X218542623Y-6611373I-25J191590D01*
G01*
X207168750Y-13493750D02*
G75*
G02*
X208756250Y-11906250I1587450J50D01*
G01*
X205581250Y-11906250D02*
G75*
G02*
X207168750Y-13493750I50J-1587450D01*
G01*
X213518700Y-8349998D02*
G75*
G02*
X215518748Y-6350000I2000000J-2D01*
G01*
D20*
%TO.N,enccol*%
X178593750Y-39290625D02*
X178593750Y-40084375D01*
X179784375Y-43656250D02*
X178990625Y-43656250D01*
X180181250Y-43656300D02*
G75*
G02*
X180975000Y-44450000I50J-793700D01*
G01*
X204390625Y-42862450D02*
G75*
G02*
X205581250Y-44053125I-25J-1190650D01*
G01*
X178593750Y-39290625D02*
G75*
G02*
X178990625Y-38893750I396850J25D01*
G01*
X207168750Y-49212450D02*
G75*
G02*
X205581250Y-47625000I-50J1587450D01*
G01*
X179784375Y-38893700D02*
G75*
G03*
X180975000Y-37703125I25J1190600D01*
G01*
X178990625Y-43656250D02*
G75*
G02*
X178593750Y-43259375I-25J396850D01*
G01*
D21*
%TO.N,VCC*%
X217487500Y-13087500D02*
X216675000Y-13087500D01*
X209937500Y-15087498D02*
G75*
G02*
X211937498Y-13087500I2000000J-2D01*
G01*
X217487500Y-13087491D02*
G75*
G03*
X218181011Y-12800236I0J980791D01*
G01*
D20*
%TO.N,scl*%
X214222989Y-37127228D02*
X214222989Y-37306250D01*
X214222994Y-16027804D02*
G75*
G02*
X214267744Y-15919755I152806J4D01*
G01*
X214159668Y-37459027D02*
G75*
G03*
X214222989Y-37306250I-152768J152827D01*
G01*
%TO.N,sda*%
X215026849Y-38814401D02*
G75*
G02*
X214947500Y-38622746I191651J191601D01*
G01*
%TO.N,col1*%
X137715625Y-26987500D02*
G75*
G02*
X139700000Y-28971875I-25J-1984400D01*
G01*
X137715625Y-26987450D02*
G75*
G02*
X135731250Y-25003125I-25J1984350D01*
G01*
%TO.N,rst*%
X215900000Y-44450000D02*
G75*
G03*
X217487500Y-42862500I0J1587500D01*
G01*
%TO.N,Net-(D26-Pad2)*%
X132556250Y-27368751D02*
X132556250Y-10318750D01*
%TO.N,Net-(D19-Pad2)*%
X112712500Y-21431250D02*
X112712500Y-26193750D01*
%TO.N,Net-(D4-Pad2)*%
X37306250Y-20637500D02*
X37306250Y-23018750D01*
%TO.N,Net-(D5-Pad2)*%
X38100000Y-23812500D02*
X38100000Y-19843750D01*
%TO.N,Net-(D6-Pad2)*%
X38893750Y-19050000D02*
X38893750Y-24606250D01*
%TO.N,enccol*%
X208756250Y-49212500D02*
X207168750Y-49212500D01*
X205581250Y-47625000D02*
X205581250Y-44053125D01*
X203200000Y-42862500D02*
X204390625Y-42862500D01*
%TO.N,rst*%
X217487500Y-42862500D02*
X217487500Y-15081250D01*
X215900000Y-44450000D02*
X214312500Y-44450000D01*
%TO.N,col0*%
X2381250Y-19843750D02*
X2381250Y-46037500D01*
%TO.N,col4*%
X4762500Y-46037500D02*
X4762500Y-38893750D01*
%TO.N,col1*%
X16668750Y-52387500D02*
X16668750Y-45243750D01*
X21431250Y-19843750D02*
X21431250Y-45243750D01*
%TO.N,col5*%
X26193750Y-38893750D02*
X26193750Y-46037500D01*
%TO.N,col2*%
X35718750Y-44450000D02*
X35718750Y-52387500D01*
%TO.N,enccol*%
X54768750Y-44450000D02*
X54768750Y-52387500D01*
%TO.N,col2*%
X40481250Y-44450000D02*
X40481250Y-19843750D01*
%TO.N,col0*%
X45243750Y-38893750D02*
X45243750Y-42862500D01*
%TO.N,enccol*%
X59531250Y-19843750D02*
X59531250Y-44450000D01*
%TO.N,col1*%
X64293750Y-38893750D02*
X64293750Y-42862500D01*
%TO.N,col4*%
X78581250Y-43656250D02*
X78581250Y-19843750D01*
%TO.N,col2*%
X83343750Y-42068750D02*
X83343750Y-38893750D01*
%TO.N,col4*%
X83343750Y-43656250D02*
X83343750Y-52387500D01*
%TO.N,col5*%
X97631250Y-44450000D02*
X97631250Y-19843750D01*
%TO.N,enccol*%
X102393750Y-42862500D02*
X102393750Y-38893750D01*
%TO.N,col0*%
X116681250Y-19843750D02*
X116681250Y-42068750D01*
%TO.N,col5*%
X111918750Y-52387500D02*
X111918750Y-46037500D01*
%TO.N,col4*%
X121443750Y-45243750D02*
X121443750Y-38893750D01*
%TO.N,col1*%
X139700000Y-42862500D02*
X139700000Y-28971875D01*
X135731250Y-19843750D02*
X135731250Y-25003125D01*
%TO.N,col0*%
X130968750Y-42068750D02*
X130968750Y-52387500D01*
%TO.N,col5*%
X140493750Y-46037500D02*
X140493750Y-38893750D01*
%TO.N,col2*%
X154781250Y-19843750D02*
X154781250Y-43656250D01*
%TO.N,col1*%
X150018750Y-52387500D02*
X150018750Y-42862500D01*
%TO.N,enccol*%
X180975000Y-37703125D02*
X180975000Y-29368750D01*
X179784375Y-38893750D02*
X178990625Y-38893750D01*
X178593750Y-43259375D02*
X178593750Y-40084375D01*
X179784375Y-43656250D02*
X180181250Y-43656250D01*
X180975000Y-46831250D02*
X180975000Y-44450000D01*
%TO.N,col2*%
X169068750Y-52387500D02*
X169068750Y-43656250D01*
%TO.N,Net-(D24-Pad2)*%
X134937500Y-50800000D02*
X134143750Y-50800000D01*
%TO.N,encrow*%
X138906250Y-48418750D02*
X138906250Y-29781248D01*
%TO.N,Net-(D27-Pad2)*%
X138112500Y-30574998D02*
X138112500Y-49212500D01*
%TO.N,Net-(D26-Pad2)*%
X137318750Y-31368748D02*
X137318750Y-50006250D01*
%TO.N,Net-(D25-Pad2)*%
X136525000Y-50403125D02*
X136525000Y-50800000D01*
X136525000Y-49609375D02*
X136525000Y-32162498D01*
%TO.N,Net-(D24-Pad2)*%
X135731250Y-50006250D02*
X135731250Y-32956248D01*
%TO.N,Net-(D23-Pad2)*%
X134937500Y-33749998D02*
X134937500Y-50006250D01*
%TO.N,encrow*%
X136906251Y-27781250D02*
X136143748Y-27781250D01*
%TO.N,Net-(D27-Pad2)*%
X136112501Y-28575000D02*
X135349998Y-28575000D01*
%TO.N,Net-(D26-Pad2)*%
X135318751Y-29368750D02*
X134556248Y-29368750D01*
%TO.N,Net-(D25-Pad2)*%
X134525001Y-30162500D02*
X133762498Y-30162500D01*
%TO.N,Net-(D24-Pad2)*%
X133731251Y-30956250D02*
X132968748Y-30956250D01*
%TO.N,Net-(D23-Pad2)*%
X132937501Y-31750000D02*
X132174998Y-31750000D01*
%TO.N,encrow*%
X134143750Y-8731250D02*
X134143750Y-25781251D01*
%TO.N,Net-(D27-Pad2)*%
X133350000Y-26575001D02*
X133350000Y-9525000D01*
%TO.N,Net-(D25-Pad2)*%
X131762500Y-11112500D02*
X131762500Y-28162501D01*
%TO.N,Net-(D24-Pad2)*%
X130968750Y-11906250D02*
X130968750Y-28956251D01*
%TO.N,Net-(D23-Pad2)*%
X130175000Y-29750001D02*
X130175000Y-12700000D01*
%TO.N,Net-(D20-Pad2)*%
X99218750Y-34925000D02*
X99218750Y-45243750D01*
%TO.N,Net-(D21-Pad2)*%
X100012500Y-34528125D02*
X100012500Y-46037500D01*
%TO.N,Net-(D22-Pad2)*%
X100806250Y-46831250D02*
X100806250Y-40443144D01*
X100806250Y-33749998D02*
X100806250Y-35756856D01*
X113093751Y-31750000D02*
X102806248Y-31750000D01*
X115093750Y-29750001D02*
X115093750Y-13112498D01*
%TO.N,Net-(D21-Pad2)*%
X114300000Y-13906248D02*
X114300000Y-28956251D01*
X101203125Y-30956250D02*
X112300001Y-30956250D01*
%TO.N,Net-(D20-Pad2)*%
X111506251Y-30162500D02*
X100806250Y-30162500D01*
X113506250Y-28162501D02*
X113506250Y-14699998D01*
%TO.N,Net-(D22-Pad2)*%
X113093751Y-11112500D02*
X98521298Y-11112500D01*
X95646875Y-9921875D02*
X94456250Y-8731250D01*
%TO.N,Net-(D20-Pad2)*%
X111506251Y-12700000D02*
X92741463Y-12700000D01*
%TO.N,Net-(D21-Pad2)*%
X95907564Y-11906250D02*
X112300001Y-11906250D01*
X92075000Y-10318750D02*
X90487500Y-8731250D01*
%TO.N,Net-(D20-Pad2)*%
X86518750Y-8731250D02*
X88893707Y-11106207D01*
%TO.N,Net-(D18-Pad2)*%
X96043750Y-29368750D02*
X96043750Y-19050000D01*
%TO.N,Net-(D17-Pad2)*%
X95250000Y-30162500D02*
X95250000Y-19843750D01*
%TO.N,Net-(D16-Pad2)*%
X94456250Y-29765625D02*
X94456250Y-30956250D01*
%TO.N,Net-(D15-Pad2)*%
X93662500Y-30559375D02*
X93662500Y-31750000D01*
%TO.N,Net-(D16-Pad2)*%
X94456250Y-20637500D02*
X94456250Y-27384375D01*
%TO.N,Net-(D15-Pad2)*%
X93662500Y-28178125D02*
X93662500Y-21431250D01*
X78581250Y-11112500D02*
X80168750Y-12700000D01*
X74748685Y-9525000D02*
X68030016Y-9525000D01*
X66675000Y-8731250D02*
X67071875Y-9128125D01*
%TO.N,Net-(D14-Pad2)*%
X76993750Y-12318748D02*
X76993750Y-31750000D01*
%TO.N,Net-(D13-Pad2)*%
X76200000Y-13112498D02*
X76200000Y-30956250D01*
%TO.N,Net-(D12-Pad2)*%
X75406250Y-30162500D02*
X75406250Y-13906248D01*
%TO.N,Net-(D11-Pad2)*%
X74612500Y-29368750D02*
X74612500Y-14699998D01*
%TO.N,Net-(D14-Pad2)*%
X74993751Y-10318750D02*
X65416282Y-10318750D01*
X62706250Y-8731250D02*
X63500000Y-9525000D01*
%TO.N,Net-(D13-Pad2)*%
X62802548Y-11112500D02*
X74200001Y-11112500D01*
X59928125Y-9921875D02*
X58737500Y-8731250D01*
%TO.N,Net-(D12-Pad2)*%
X60188814Y-11906250D02*
X73406251Y-11906250D01*
X56356250Y-10318750D02*
X54768750Y-8731250D01*
%TO.N,Net-(D11-Pad2)*%
X57022713Y-12700000D02*
X72612501Y-12700000D01*
X53174957Y-11106207D02*
X50800000Y-8731250D01*
%TO.N,Net-(D10-Pad2)*%
X57943750Y-26987500D02*
X57943750Y-19050000D01*
%TO.N,Net-(D9-Pad2)*%
X57150000Y-26193750D02*
X57150000Y-19843750D01*
%TO.N,Net-(D8-Pad2)*%
X56353438Y-25397188D02*
X56353438Y-20634688D01*
X56353438Y-20634688D02*
X56356250Y-20637500D01*
%TO.N,Net-(D7-Pad2)*%
X55562500Y-24606250D02*
X55562500Y-21431250D01*
%TO.N,row4*%
X199231250Y-23057286D02*
X199231250Y-9143748D01*
X117242516Y-7143750D02*
X197231251Y-7143750D01*
X200825042Y-26905042D02*
X203517500Y-29597500D01*
%TO.N,row3*%
X100806250Y-6350000D02*
X198025001Y-6350000D01*
X200025000Y-8349998D02*
X200025000Y-21311036D01*
X201618792Y-25158792D02*
X203517500Y-27057500D01*
%TO.N,row2*%
X200818750Y-19840445D02*
X200818750Y-7556248D01*
X202168125Y-23098125D02*
X203517500Y-24447500D01*
X77390625Y-5556250D02*
X198818751Y-5556250D01*
%TO.N,row1*%
X199612501Y-4762500D02*
X198399394Y-4762500D01*
X201612500Y-6762498D02*
X201612500Y-18655461D01*
X202565000Y-20955000D02*
X203517500Y-21907500D01*
%TO.N,row0*%
X202961875Y-18811875D02*
X203517500Y-19367500D01*
X30559375Y-3968749D02*
X200406251Y-3968749D01*
X202406250Y-5968748D02*
X202406250Y-17470477D01*
%TO.N,row1*%
X193713106Y-4762500D02*
X53975000Y-4762500D01*
%TO.N,encA*%
X219792880Y-39611630D02*
X219868750Y-39687500D01*
X219717011Y-39428465D02*
X219717011Y-15925487D01*
X219237255Y-14767255D02*
X218757500Y-14287500D01*
D21*
%TO.N,VCC*%
X216675000Y-13087500D02*
X211937498Y-13087500D01*
X218181012Y-12800237D02*
X219075000Y-11906250D01*
X209937500Y-15087498D02*
X209937500Y-38893750D01*
D20*
%TO.N,scl*%
X214222989Y-37127228D02*
X214222989Y-16027804D01*
X214159695Y-37459054D02*
X212725000Y-38893750D01*
X214312500Y-15875000D02*
X214267744Y-15919755D01*
%TO.N,sda*%
X215026875Y-38814375D02*
X215106250Y-38893750D01*
X214947500Y-38622746D02*
X214947500Y-16827500D01*
%TO.N,row0*%
X26590625Y-7937500D02*
X8731250Y-7937500D01*
%TO.N,row1*%
X50800000Y-7937500D02*
X32543750Y-7937500D01*
%TO.N,row2*%
X75009375Y-7937500D02*
X56356250Y-7937500D01*
%TO.N,row3*%
X99218750Y-7937500D02*
X80168750Y-7937500D01*
%TO.N,row4*%
X115326233Y-7937500D02*
X103981250Y-7937500D01*
D21*
%TO.N,GND*%
X208756250Y-11906250D02*
X211518751Y-11906250D01*
X213518750Y-8349998D02*
X213518750Y-9906251D01*
X203517500Y-11364243D02*
X203517500Y-9207500D01*
X203596875Y-11906250D02*
X203424506Y-11906250D01*
X211137500Y-46037500D02*
X211137500Y-65443750D01*
X205581250Y-11906250D02*
X204390625Y-11906250D01*
X215518748Y-6350000D02*
X218056743Y-6350000D01*
X209550000Y-44450000D02*
X208523766Y-44450000D01*
X207168750Y-41236894D02*
X207168750Y-43094983D01*
X218542623Y-6611373D02*
X218440000Y-6508750D01*
X218678125Y-6667500D02*
X218757500Y-6667500D01*
X207168750Y-13493750D02*
X207168750Y-36550606D01*
%TD*%
M02*
