%TF.GenerationSoftware,KiCad,Pcbnew,(6.0.5)*%
%TF.CreationDate,2022-06-01T12:58:50-07:00*%
%TF.ProjectId,hannah_montana,68616e6e-6168-45f6-9d6f-6e74616e612e,rev?*%
%TF.SameCoordinates,Original*%
%TF.FileFunction,Legend,Top*%
%TF.FilePolarity,Positive*%
%FSLAX46Y46*%
G04 Gerber Fmt 4.6, Leading zero omitted, Abs format (unit mm)*
G04 Created by KiCad (PCBNEW (6.0.5)) date 2022-06-01 12:58:50*
%MOMM*%
%LPD*%
G01*
G04 APERTURE LIST*
%ADD10C,0.150000*%
%ADD11C,0.120000*%
G04 APERTURE END LIST*
D10*
%TO.C,MX6*%
X98489285Y-28296130D02*
X98489285Y-27296130D01*
X98822619Y-28010416D01*
X99155952Y-27296130D01*
X99155952Y-28296130D01*
X99536904Y-27296130D02*
X100203571Y-28296130D01*
X100203571Y-27296130D02*
X99536904Y-28296130D01*
X101013095Y-27296130D02*
X100822619Y-27296130D01*
X100727380Y-27343750D01*
X100679761Y-27391369D01*
X100584523Y-27534226D01*
X100536904Y-27724702D01*
X100536904Y-28105654D01*
X100584523Y-28200892D01*
X100632142Y-28248511D01*
X100727380Y-28296130D01*
X100917857Y-28296130D01*
X101013095Y-28248511D01*
X101060714Y-28200892D01*
X101108333Y-28105654D01*
X101108333Y-27867559D01*
X101060714Y-27772321D01*
X101013095Y-27724702D01*
X100917857Y-27677083D01*
X100727380Y-27677083D01*
X100632142Y-27724702D01*
X100584523Y-27772321D01*
X100536904Y-27867559D01*
%TO.C,MX9*%
X155639285Y-28296130D02*
X155639285Y-27296130D01*
X155972619Y-28010416D01*
X156305952Y-27296130D01*
X156305952Y-28296130D01*
X156686904Y-27296130D02*
X157353571Y-28296130D01*
X157353571Y-27296130D02*
X156686904Y-28296130D01*
X157782142Y-28296130D02*
X157972619Y-28296130D01*
X158067857Y-28248511D01*
X158115476Y-28200892D01*
X158210714Y-28058035D01*
X158258333Y-27867559D01*
X158258333Y-27486607D01*
X158210714Y-27391369D01*
X158163095Y-27343750D01*
X158067857Y-27296130D01*
X157877380Y-27296130D01*
X157782142Y-27343750D01*
X157734523Y-27391369D01*
X157686904Y-27486607D01*
X157686904Y-27724702D01*
X157734523Y-27819940D01*
X157782142Y-27867559D01*
X157877380Y-27915178D01*
X158067857Y-27915178D01*
X158163095Y-27867559D01*
X158210714Y-27819940D01*
X158258333Y-27724702D01*
%TO.C,MX3*%
X41339285Y-28296130D02*
X41339285Y-27296130D01*
X41672619Y-28010416D01*
X42005952Y-27296130D01*
X42005952Y-28296130D01*
X42386904Y-27296130D02*
X43053571Y-28296130D01*
X43053571Y-27296130D02*
X42386904Y-28296130D01*
X43339285Y-27296130D02*
X43958333Y-27296130D01*
X43625000Y-27677083D01*
X43767857Y-27677083D01*
X43863095Y-27724702D01*
X43910714Y-27772321D01*
X43958333Y-27867559D01*
X43958333Y-28105654D01*
X43910714Y-28200892D01*
X43863095Y-28248511D01*
X43767857Y-28296130D01*
X43482142Y-28296130D01*
X43386904Y-28248511D01*
X43339285Y-28200892D01*
%TO.C,MX8*%
X136589285Y-28296130D02*
X136589285Y-27296130D01*
X136922619Y-28010416D01*
X137255952Y-27296130D01*
X137255952Y-28296130D01*
X137636904Y-27296130D02*
X138303571Y-28296130D01*
X138303571Y-27296130D02*
X137636904Y-28296130D01*
X138827380Y-27724702D02*
X138732142Y-27677083D01*
X138684523Y-27629464D01*
X138636904Y-27534226D01*
X138636904Y-27486607D01*
X138684523Y-27391369D01*
X138732142Y-27343750D01*
X138827380Y-27296130D01*
X139017857Y-27296130D01*
X139113095Y-27343750D01*
X139160714Y-27391369D01*
X139208333Y-27486607D01*
X139208333Y-27534226D01*
X139160714Y-27629464D01*
X139113095Y-27677083D01*
X139017857Y-27724702D01*
X138827380Y-27724702D01*
X138732142Y-27772321D01*
X138684523Y-27819940D01*
X138636904Y-27915178D01*
X138636904Y-28105654D01*
X138684523Y-28200892D01*
X138732142Y-28248511D01*
X138827380Y-28296130D01*
X139017857Y-28296130D01*
X139113095Y-28248511D01*
X139160714Y-28200892D01*
X139208333Y-28105654D01*
X139208333Y-27915178D01*
X139160714Y-27819940D01*
X139113095Y-27772321D01*
X139017857Y-27724702D01*
%TO.C,MX5*%
X79439285Y-28296130D02*
X79439285Y-27296130D01*
X79772619Y-28010416D01*
X80105952Y-27296130D01*
X80105952Y-28296130D01*
X80486904Y-27296130D02*
X81153571Y-28296130D01*
X81153571Y-27296130D02*
X80486904Y-28296130D01*
X82010714Y-27296130D02*
X81534523Y-27296130D01*
X81486904Y-27772321D01*
X81534523Y-27724702D01*
X81629761Y-27677083D01*
X81867857Y-27677083D01*
X81963095Y-27724702D01*
X82010714Y-27772321D01*
X82058333Y-27867559D01*
X82058333Y-28105654D01*
X82010714Y-28200892D01*
X81963095Y-28248511D01*
X81867857Y-28296130D01*
X81629761Y-28296130D01*
X81534523Y-28248511D01*
X81486904Y-28200892D01*
%TO.C,MX10*%
X181263095Y-37871130D02*
X181263095Y-36871130D01*
X181596428Y-37585416D01*
X181929761Y-36871130D01*
X181929761Y-37871130D01*
X182310714Y-36871130D02*
X182977380Y-37871130D01*
X182977380Y-36871130D02*
X182310714Y-37871130D01*
X183882142Y-37871130D02*
X183310714Y-37871130D01*
X183596428Y-37871130D02*
X183596428Y-36871130D01*
X183501190Y-37013988D01*
X183405952Y-37109226D01*
X183310714Y-37156845D01*
X184501190Y-36871130D02*
X184596428Y-36871130D01*
X184691666Y-36918750D01*
X184739285Y-36966369D01*
X184786904Y-37061607D01*
X184834523Y-37252083D01*
X184834523Y-37490178D01*
X184786904Y-37680654D01*
X184739285Y-37775892D01*
X184691666Y-37823511D01*
X184596428Y-37871130D01*
X184501190Y-37871130D01*
X184405952Y-37823511D01*
X184358333Y-37775892D01*
X184310714Y-37680654D01*
X184263095Y-37490178D01*
X184263095Y-37252083D01*
X184310714Y-37061607D01*
X184358333Y-36966369D01*
X184405952Y-36918750D01*
X184501190Y-36871130D01*
%TO.C,U1*%
X198779880Y-17169404D02*
X199589404Y-17169404D01*
X199684642Y-17121785D01*
X199732261Y-17074166D01*
X199779880Y-16978928D01*
X199779880Y-16788452D01*
X199732261Y-16693214D01*
X199684642Y-16645595D01*
X199589404Y-16597976D01*
X198779880Y-16597976D01*
X199779880Y-15597976D02*
X199779880Y-16169404D01*
X199779880Y-15883690D02*
X198779880Y-15883690D01*
X198922738Y-15978928D01*
X199017976Y-16074166D01*
X199065595Y-16169404D01*
%TO.C,D20*%
X76881237Y-2398497D02*
X76174131Y-1691390D01*
X76342489Y-1523031D01*
X76477176Y-1455688D01*
X76611863Y-1455688D01*
X76712879Y-1489360D01*
X76881237Y-1590375D01*
X76982253Y-1691390D01*
X77083268Y-1859749D01*
X77116940Y-1960764D01*
X77116940Y-2095451D01*
X77049596Y-2230138D01*
X76881237Y-2398497D01*
X76914909Y-1085298D02*
X76914909Y-1017955D01*
X76948581Y-916940D01*
X77116940Y-748581D01*
X77217955Y-714909D01*
X77285298Y-714909D01*
X77386314Y-748581D01*
X77453657Y-815924D01*
X77521001Y-950611D01*
X77521001Y-1758734D01*
X77958734Y-1321001D01*
X77689360Y-176161D02*
X77756703Y-108818D01*
X77857718Y-75146D01*
X77925062Y-75146D01*
X78026077Y-108818D01*
X78194436Y-209833D01*
X78362795Y-378192D01*
X78463810Y-546550D01*
X78497482Y-647566D01*
X78497482Y-714909D01*
X78463810Y-815924D01*
X78396466Y-883268D01*
X78295451Y-916940D01*
X78228108Y-916940D01*
X78127092Y-883268D01*
X77958734Y-782253D01*
X77790375Y-613894D01*
X77689360Y-445535D01*
X77655688Y-344520D01*
X77655688Y-277176D01*
X77689360Y-176161D01*
%TO.C,SW1*%
X209443452Y-44902380D02*
X209443452Y-44235714D01*
X209443452Y-44426190D02*
X209491071Y-44330952D01*
X209538690Y-44283333D01*
X209633928Y-44235714D01*
X209729166Y-44235714D01*
X210443452Y-44854761D02*
X210348214Y-44902380D01*
X210157738Y-44902380D01*
X210062500Y-44854761D01*
X210014880Y-44759523D01*
X210014880Y-44378571D01*
X210062500Y-44283333D01*
X210157738Y-44235714D01*
X210348214Y-44235714D01*
X210443452Y-44283333D01*
X210491071Y-44378571D01*
X210491071Y-44473809D01*
X210014880Y-44569047D01*
X210872023Y-44854761D02*
X210967261Y-44902380D01*
X211157738Y-44902380D01*
X211252976Y-44854761D01*
X211300595Y-44759523D01*
X211300595Y-44711904D01*
X211252976Y-44616666D01*
X211157738Y-44569047D01*
X211014880Y-44569047D01*
X210919642Y-44521428D01*
X210872023Y-44426190D01*
X210872023Y-44378571D01*
X210919642Y-44283333D01*
X211014880Y-44235714D01*
X211157738Y-44235714D01*
X211252976Y-44283333D01*
X212110119Y-44854761D02*
X212014880Y-44902380D01*
X211824404Y-44902380D01*
X211729166Y-44854761D01*
X211681547Y-44759523D01*
X211681547Y-44378571D01*
X211729166Y-44283333D01*
X211824404Y-44235714D01*
X212014880Y-44235714D01*
X212110119Y-44283333D01*
X212157738Y-44378571D01*
X212157738Y-44473809D01*
X211681547Y-44569047D01*
X212443452Y-44235714D02*
X212824404Y-44235714D01*
X212586309Y-43902380D02*
X212586309Y-44759523D01*
X212633928Y-44854761D01*
X212729166Y-44902380D01*
X212824404Y-44902380D01*
%TO.C,MX23*%
X83475595Y-66421130D02*
X83475595Y-65421130D01*
X83808928Y-66135416D01*
X84142261Y-65421130D01*
X84142261Y-66421130D01*
X84523214Y-65421130D02*
X85189880Y-66421130D01*
X85189880Y-65421130D02*
X84523214Y-66421130D01*
X85523214Y-65516369D02*
X85570833Y-65468750D01*
X85666071Y-65421130D01*
X85904166Y-65421130D01*
X85999404Y-65468750D01*
X86047023Y-65516369D01*
X86094642Y-65611607D01*
X86094642Y-65706845D01*
X86047023Y-65849702D01*
X85475595Y-66421130D01*
X86094642Y-66421130D01*
X86427976Y-65421130D02*
X87047023Y-65421130D01*
X86713690Y-65802083D01*
X86856547Y-65802083D01*
X86951785Y-65849702D01*
X86999404Y-65897321D01*
X87047023Y-65992559D01*
X87047023Y-66230654D01*
X86999404Y-66325892D01*
X86951785Y-66373511D01*
X86856547Y-66421130D01*
X86570833Y-66421130D01*
X86475595Y-66373511D01*
X86427976Y-66325892D01*
%TO.C,MX19*%
X159925595Y-47346130D02*
X159925595Y-46346130D01*
X160258928Y-47060416D01*
X160592261Y-46346130D01*
X160592261Y-47346130D01*
X160973214Y-46346130D02*
X161639880Y-47346130D01*
X161639880Y-46346130D02*
X160973214Y-47346130D01*
X162544642Y-47346130D02*
X161973214Y-47346130D01*
X162258928Y-47346130D02*
X162258928Y-46346130D01*
X162163690Y-46488988D01*
X162068452Y-46584226D01*
X161973214Y-46631845D01*
X163020833Y-47346130D02*
X163211309Y-47346130D01*
X163306547Y-47298511D01*
X163354166Y-47250892D01*
X163449404Y-47108035D01*
X163497023Y-46917559D01*
X163497023Y-46536607D01*
X163449404Y-46441369D01*
X163401785Y-46393750D01*
X163306547Y-46346130D01*
X163116071Y-46346130D01*
X163020833Y-46393750D01*
X162973214Y-46441369D01*
X162925595Y-46536607D01*
X162925595Y-46774702D01*
X162973214Y-46869940D01*
X163020833Y-46917559D01*
X163116071Y-46965178D01*
X163306547Y-46965178D01*
X163401785Y-46917559D01*
X163449404Y-46869940D01*
X163497023Y-46774702D01*
%TO.C,D17*%
X64974987Y-2398497D02*
X64267881Y-1691390D01*
X64436239Y-1523031D01*
X64570926Y-1455688D01*
X64705613Y-1455688D01*
X64806629Y-1489360D01*
X64974987Y-1590375D01*
X65076003Y-1691390D01*
X65177018Y-1859749D01*
X65210690Y-1960764D01*
X65210690Y-2095451D01*
X65143346Y-2230138D01*
X64974987Y-2398497D01*
X66052484Y-1321001D02*
X65648423Y-1725062D01*
X65850453Y-1523031D02*
X65143346Y-815924D01*
X65177018Y-984283D01*
X65177018Y-1118970D01*
X65143346Y-1219985D01*
X65581079Y-378192D02*
X66052484Y93212D01*
X66456545Y-916940D01*
%TO.C,D2*%
X5780455Y-2061779D02*
X5073348Y-1354673D01*
X5241707Y-1186314D01*
X5376394Y-1118970D01*
X5511081Y-1118970D01*
X5612096Y-1152642D01*
X5780455Y-1253657D01*
X5881470Y-1354673D01*
X5982486Y-1523031D01*
X6016157Y-1624047D01*
X6016157Y-1758734D01*
X5948814Y-1893421D01*
X5780455Y-2061779D01*
X5814127Y-748581D02*
X5814127Y-681237D01*
X5847798Y-580222D01*
X6016157Y-411863D01*
X6117173Y-378192D01*
X6184516Y-378192D01*
X6285531Y-411863D01*
X6352875Y-479207D01*
X6420218Y-613894D01*
X6420218Y-1422016D01*
X6857951Y-984283D01*
%TO.C,MX4*%
X60389285Y-28296130D02*
X60389285Y-27296130D01*
X60722619Y-28010416D01*
X61055952Y-27296130D01*
X61055952Y-28296130D01*
X61436904Y-27296130D02*
X62103571Y-28296130D01*
X62103571Y-27296130D02*
X61436904Y-28296130D01*
X62913095Y-27629464D02*
X62913095Y-28296130D01*
X62675000Y-27248511D02*
X62436904Y-27962797D01*
X63055952Y-27962797D01*
%TO.C,D10*%
X37193737Y-2398497D02*
X36486631Y-1691390D01*
X36654989Y-1523031D01*
X36789676Y-1455688D01*
X36924363Y-1455688D01*
X37025379Y-1489360D01*
X37193737Y-1590375D01*
X37294753Y-1691390D01*
X37395768Y-1859749D01*
X37429440Y-1960764D01*
X37429440Y-2095451D01*
X37362096Y-2230138D01*
X37193737Y-2398497D01*
X38271234Y-1321001D02*
X37867173Y-1725062D01*
X38069203Y-1523031D02*
X37362096Y-815924D01*
X37395768Y-984283D01*
X37395768Y-1118970D01*
X37362096Y-1219985D01*
X38001860Y-176161D02*
X38069203Y-108818D01*
X38170218Y-75146D01*
X38237562Y-75146D01*
X38338577Y-108818D01*
X38506936Y-209833D01*
X38675295Y-378192D01*
X38776310Y-546550D01*
X38809982Y-647566D01*
X38809982Y-714909D01*
X38776310Y-815924D01*
X38708966Y-883268D01*
X38607951Y-916940D01*
X38540608Y-916940D01*
X38439592Y-883268D01*
X38271234Y-782253D01*
X38102875Y-613894D01*
X38001860Y-445535D01*
X37968188Y-344520D01*
X37968188Y-277176D01*
X38001860Y-176161D01*
%TO.C,D28*%
X108631237Y-2398497D02*
X107924131Y-1691390D01*
X108092489Y-1523031D01*
X108227176Y-1455688D01*
X108361863Y-1455688D01*
X108462879Y-1489360D01*
X108631237Y-1590375D01*
X108732253Y-1691390D01*
X108833268Y-1859749D01*
X108866940Y-1960764D01*
X108866940Y-2095451D01*
X108799596Y-2230138D01*
X108631237Y-2398497D01*
X108664909Y-1085298D02*
X108664909Y-1017955D01*
X108698581Y-916940D01*
X108866940Y-748581D01*
X108967955Y-714909D01*
X109035298Y-714909D01*
X109136314Y-748581D01*
X109203657Y-815924D01*
X109271001Y-950611D01*
X109271001Y-1758734D01*
X109708734Y-1321001D01*
X109708734Y-512879D02*
X109607718Y-546550D01*
X109540375Y-546550D01*
X109439360Y-512879D01*
X109405688Y-479207D01*
X109372016Y-378192D01*
X109372016Y-310848D01*
X109405688Y-209833D01*
X109540375Y-75146D01*
X109641390Y-41474D01*
X109708734Y-41474D01*
X109809749Y-75146D01*
X109843421Y-108818D01*
X109877092Y-209833D01*
X109877092Y-277176D01*
X109843421Y-378192D01*
X109708734Y-512879D01*
X109675062Y-613894D01*
X109675062Y-681237D01*
X109708734Y-782253D01*
X109843421Y-916940D01*
X109944436Y-950611D01*
X110011779Y-950611D01*
X110112795Y-916940D01*
X110247482Y-782253D01*
X110281153Y-681237D01*
X110281153Y-613894D01*
X110247482Y-512879D01*
X110112795Y-378192D01*
X110011779Y-344520D01*
X109944436Y-344520D01*
X109843421Y-378192D01*
%TO.C,D13*%
X49099987Y-2398497D02*
X48392881Y-1691390D01*
X48561239Y-1523031D01*
X48695926Y-1455688D01*
X48830613Y-1455688D01*
X48931629Y-1489360D01*
X49099987Y-1590375D01*
X49201003Y-1691390D01*
X49302018Y-1859749D01*
X49335690Y-1960764D01*
X49335690Y-2095451D01*
X49268346Y-2230138D01*
X49099987Y-2398497D01*
X50177484Y-1321001D02*
X49773423Y-1725062D01*
X49975453Y-1523031D02*
X49268346Y-815924D01*
X49302018Y-984283D01*
X49302018Y-1118970D01*
X49268346Y-1219985D01*
X49706079Y-378192D02*
X50143812Y59540D01*
X50177484Y-445535D01*
X50278499Y-344520D01*
X50379514Y-310848D01*
X50446858Y-310848D01*
X50547873Y-344520D01*
X50716232Y-512879D01*
X50749903Y-613894D01*
X50749903Y-681237D01*
X50716232Y-782253D01*
X50514201Y-984283D01*
X50413186Y-1017955D01*
X50345842Y-1017955D01*
%TO.C,D7*%
X25624205Y-2061779D02*
X24917098Y-1354673D01*
X25085457Y-1186314D01*
X25220144Y-1118970D01*
X25354831Y-1118970D01*
X25455846Y-1152642D01*
X25624205Y-1253657D01*
X25725220Y-1354673D01*
X25826236Y-1523031D01*
X25859907Y-1624047D01*
X25859907Y-1758734D01*
X25792564Y-1893421D01*
X25624205Y-2061779D01*
X25556861Y-714909D02*
X26028266Y-243505D01*
X26432327Y-1253657D01*
%TO.C,MX22*%
X55150595Y-66396130D02*
X55150595Y-65396130D01*
X55483928Y-66110416D01*
X55817261Y-65396130D01*
X55817261Y-66396130D01*
X56198214Y-65396130D02*
X56864880Y-66396130D01*
X56864880Y-65396130D02*
X56198214Y-66396130D01*
X57198214Y-65491369D02*
X57245833Y-65443750D01*
X57341071Y-65396130D01*
X57579166Y-65396130D01*
X57674404Y-65443750D01*
X57722023Y-65491369D01*
X57769642Y-65586607D01*
X57769642Y-65681845D01*
X57722023Y-65824702D01*
X57150595Y-66396130D01*
X57769642Y-66396130D01*
X58150595Y-65491369D02*
X58198214Y-65443750D01*
X58293452Y-65396130D01*
X58531547Y-65396130D01*
X58626785Y-65443750D01*
X58674404Y-65491369D01*
X58722023Y-65586607D01*
X58722023Y-65681845D01*
X58674404Y-65824702D01*
X58102976Y-66396130D01*
X58722023Y-66396130D01*
%TO.C,D3*%
X9749205Y-2061779D02*
X9042098Y-1354673D01*
X9210457Y-1186314D01*
X9345144Y-1118970D01*
X9479831Y-1118970D01*
X9580846Y-1152642D01*
X9749205Y-1253657D01*
X9850220Y-1354673D01*
X9951236Y-1523031D01*
X9984907Y-1624047D01*
X9984907Y-1758734D01*
X9917564Y-1893421D01*
X9749205Y-2061779D01*
X9681861Y-714909D02*
X10119594Y-277176D01*
X10153266Y-782253D01*
X10254281Y-681237D01*
X10355297Y-647566D01*
X10422640Y-647566D01*
X10523655Y-681237D01*
X10692014Y-849596D01*
X10725686Y-950611D01*
X10725686Y-1017955D01*
X10692014Y-1118970D01*
X10489984Y-1321001D01*
X10388968Y-1354673D01*
X10321625Y-1354673D01*
%TO.C,D1*%
X1811705Y-2061779D02*
X1104598Y-1354673D01*
X1272957Y-1186314D01*
X1407644Y-1118970D01*
X1542331Y-1118970D01*
X1643346Y-1152642D01*
X1811705Y-1253657D01*
X1912720Y-1354673D01*
X2013736Y-1523031D01*
X2047407Y-1624047D01*
X2047407Y-1758734D01*
X1980064Y-1893421D01*
X1811705Y-2061779D01*
X2889201Y-984283D02*
X2485140Y-1388344D01*
X2687171Y-1186314D02*
X1980064Y-479207D01*
X2013736Y-647566D01*
X2013735Y-782253D01*
X1980064Y-883268D01*
%TO.C,D12*%
X45131237Y-2398497D02*
X44424131Y-1691390D01*
X44592489Y-1523031D01*
X44727176Y-1455688D01*
X44861863Y-1455688D01*
X44962879Y-1489360D01*
X45131237Y-1590375D01*
X45232253Y-1691390D01*
X45333268Y-1859749D01*
X45366940Y-1960764D01*
X45366940Y-2095451D01*
X45299596Y-2230138D01*
X45131237Y-2398497D01*
X46208734Y-1321001D02*
X45804673Y-1725062D01*
X46006703Y-1523031D02*
X45299596Y-815924D01*
X45333268Y-984283D01*
X45333268Y-1118970D01*
X45299596Y-1219985D01*
X45838344Y-411863D02*
X45838344Y-344520D01*
X45872016Y-243505D01*
X46040375Y-75146D01*
X46141390Y-41474D01*
X46208734Y-41474D01*
X46309749Y-75146D01*
X46377092Y-142489D01*
X46444436Y-277176D01*
X46444436Y-1085298D01*
X46882169Y-647566D01*
%TO.C,MX18*%
X140875595Y-47346130D02*
X140875595Y-46346130D01*
X141208928Y-47060416D01*
X141542261Y-46346130D01*
X141542261Y-47346130D01*
X141923214Y-46346130D02*
X142589880Y-47346130D01*
X142589880Y-46346130D02*
X141923214Y-47346130D01*
X143494642Y-47346130D02*
X142923214Y-47346130D01*
X143208928Y-47346130D02*
X143208928Y-46346130D01*
X143113690Y-46488988D01*
X143018452Y-46584226D01*
X142923214Y-46631845D01*
X144066071Y-46774702D02*
X143970833Y-46727083D01*
X143923214Y-46679464D01*
X143875595Y-46584226D01*
X143875595Y-46536607D01*
X143923214Y-46441369D01*
X143970833Y-46393750D01*
X144066071Y-46346130D01*
X144256547Y-46346130D01*
X144351785Y-46393750D01*
X144399404Y-46441369D01*
X144447023Y-46536607D01*
X144447023Y-46584226D01*
X144399404Y-46679464D01*
X144351785Y-46727083D01*
X144256547Y-46774702D01*
X144066071Y-46774702D01*
X143970833Y-46822321D01*
X143923214Y-46869940D01*
X143875595Y-46965178D01*
X143875595Y-47155654D01*
X143923214Y-47250892D01*
X143970833Y-47298511D01*
X144066071Y-47346130D01*
X144256547Y-47346130D01*
X144351785Y-47298511D01*
X144399404Y-47250892D01*
X144447023Y-47155654D01*
X144447023Y-46965178D01*
X144399404Y-46869940D01*
X144351785Y-46822321D01*
X144256547Y-46774702D01*
%TO.C,D24*%
X92756237Y-2398497D02*
X92049131Y-1691390D01*
X92217489Y-1523031D01*
X92352176Y-1455688D01*
X92486863Y-1455688D01*
X92587879Y-1489360D01*
X92756237Y-1590375D01*
X92857253Y-1691390D01*
X92958268Y-1859749D01*
X92991940Y-1960764D01*
X92991940Y-2095451D01*
X92924596Y-2230138D01*
X92756237Y-2398497D01*
X92789909Y-1085298D02*
X92789909Y-1017955D01*
X92823581Y-916940D01*
X92991940Y-748581D01*
X93092955Y-714909D01*
X93160298Y-714909D01*
X93261314Y-748581D01*
X93328657Y-815924D01*
X93396001Y-950611D01*
X93396001Y-1758734D01*
X93833734Y-1321001D01*
X93968421Y-243505D02*
X94439825Y-714909D01*
X93530688Y-142489D02*
X93867405Y-815924D01*
X94305138Y-378192D01*
%TO.C,D16*%
X61006237Y-2398497D02*
X60299131Y-1691390D01*
X60467489Y-1523031D01*
X60602176Y-1455688D01*
X60736863Y-1455688D01*
X60837879Y-1489360D01*
X61006237Y-1590375D01*
X61107253Y-1691390D01*
X61208268Y-1859749D01*
X61241940Y-1960764D01*
X61241940Y-2095451D01*
X61174596Y-2230138D01*
X61006237Y-2398497D01*
X62083734Y-1321001D02*
X61679673Y-1725062D01*
X61881703Y-1523031D02*
X61174596Y-815924D01*
X61208268Y-984283D01*
X61208268Y-1118970D01*
X61174596Y-1219985D01*
X61982718Y-7802D02*
X61848031Y-142489D01*
X61814360Y-243505D01*
X61814360Y-310848D01*
X61848031Y-479207D01*
X61949047Y-647566D01*
X62218421Y-916940D01*
X62319436Y-950611D01*
X62386779Y-950611D01*
X62487795Y-916940D01*
X62622482Y-782253D01*
X62656153Y-681237D01*
X62656153Y-613894D01*
X62622482Y-512879D01*
X62454123Y-344520D01*
X62353108Y-310848D01*
X62285764Y-310848D01*
X62184749Y-344520D01*
X62050062Y-479207D01*
X62016390Y-580222D01*
X62016390Y-647566D01*
X62050062Y-748581D01*
%TO.C,MX20*%
X17050595Y-66396130D02*
X17050595Y-65396130D01*
X17383928Y-66110416D01*
X17717261Y-65396130D01*
X17717261Y-66396130D01*
X18098214Y-65396130D02*
X18764880Y-66396130D01*
X18764880Y-65396130D02*
X18098214Y-66396130D01*
X19098214Y-65491369D02*
X19145833Y-65443750D01*
X19241071Y-65396130D01*
X19479166Y-65396130D01*
X19574404Y-65443750D01*
X19622023Y-65491369D01*
X19669642Y-65586607D01*
X19669642Y-65681845D01*
X19622023Y-65824702D01*
X19050595Y-66396130D01*
X19669642Y-66396130D01*
X20288690Y-65396130D02*
X20383928Y-65396130D01*
X20479166Y-65443750D01*
X20526785Y-65491369D01*
X20574404Y-65586607D01*
X20622023Y-65777083D01*
X20622023Y-66015178D01*
X20574404Y-66205654D01*
X20526785Y-66300892D01*
X20479166Y-66348511D01*
X20383928Y-66396130D01*
X20288690Y-66396130D01*
X20193452Y-66348511D01*
X20145833Y-66300892D01*
X20098214Y-66205654D01*
X20050595Y-66015178D01*
X20050595Y-65777083D01*
X20098214Y-65586607D01*
X20145833Y-65491369D01*
X20193452Y-65443750D01*
X20288690Y-65396130D01*
%TO.C,MX25*%
X131350595Y-66396130D02*
X131350595Y-65396130D01*
X131683928Y-66110416D01*
X132017261Y-65396130D01*
X132017261Y-66396130D01*
X132398214Y-65396130D02*
X133064880Y-66396130D01*
X133064880Y-65396130D02*
X132398214Y-66396130D01*
X133398214Y-65491369D02*
X133445833Y-65443750D01*
X133541071Y-65396130D01*
X133779166Y-65396130D01*
X133874404Y-65443750D01*
X133922023Y-65491369D01*
X133969642Y-65586607D01*
X133969642Y-65681845D01*
X133922023Y-65824702D01*
X133350595Y-66396130D01*
X133969642Y-66396130D01*
X134874404Y-65396130D02*
X134398214Y-65396130D01*
X134350595Y-65872321D01*
X134398214Y-65824702D01*
X134493452Y-65777083D01*
X134731547Y-65777083D01*
X134826785Y-65824702D01*
X134874404Y-65872321D01*
X134922023Y-65967559D01*
X134922023Y-66205654D01*
X134874404Y-66300892D01*
X134826785Y-66348511D01*
X134731547Y-66396130D01*
X134493452Y-66396130D01*
X134398214Y-66348511D01*
X134350595Y-66300892D01*
%TO.C,MX15*%
X83725595Y-47346130D02*
X83725595Y-46346130D01*
X84058928Y-47060416D01*
X84392261Y-46346130D01*
X84392261Y-47346130D01*
X84773214Y-46346130D02*
X85439880Y-47346130D01*
X85439880Y-46346130D02*
X84773214Y-47346130D01*
X86344642Y-47346130D02*
X85773214Y-47346130D01*
X86058928Y-47346130D02*
X86058928Y-46346130D01*
X85963690Y-46488988D01*
X85868452Y-46584226D01*
X85773214Y-46631845D01*
X87249404Y-46346130D02*
X86773214Y-46346130D01*
X86725595Y-46822321D01*
X86773214Y-46774702D01*
X86868452Y-46727083D01*
X87106547Y-46727083D01*
X87201785Y-46774702D01*
X87249404Y-46822321D01*
X87297023Y-46917559D01*
X87297023Y-47155654D01*
X87249404Y-47250892D01*
X87201785Y-47298511D01*
X87106547Y-47346130D01*
X86868452Y-47346130D01*
X86773214Y-47298511D01*
X86725595Y-47250892D01*
%TO.C,MX17*%
X121825595Y-47346130D02*
X121825595Y-46346130D01*
X122158928Y-47060416D01*
X122492261Y-46346130D01*
X122492261Y-47346130D01*
X122873214Y-46346130D02*
X123539880Y-47346130D01*
X123539880Y-46346130D02*
X122873214Y-47346130D01*
X124444642Y-47346130D02*
X123873214Y-47346130D01*
X124158928Y-47346130D02*
X124158928Y-46346130D01*
X124063690Y-46488988D01*
X123968452Y-46584226D01*
X123873214Y-46631845D01*
X124777976Y-46346130D02*
X125444642Y-46346130D01*
X125016071Y-47346130D01*
%TO.C,MX21*%
X36100595Y-66396130D02*
X36100595Y-65396130D01*
X36433928Y-66110416D01*
X36767261Y-65396130D01*
X36767261Y-66396130D01*
X37148214Y-65396130D02*
X37814880Y-66396130D01*
X37814880Y-65396130D02*
X37148214Y-66396130D01*
X38148214Y-65491369D02*
X38195833Y-65443750D01*
X38291071Y-65396130D01*
X38529166Y-65396130D01*
X38624404Y-65443750D01*
X38672023Y-65491369D01*
X38719642Y-65586607D01*
X38719642Y-65681845D01*
X38672023Y-65824702D01*
X38100595Y-66396130D01*
X38719642Y-66396130D01*
X39672023Y-66396130D02*
X39100595Y-66396130D01*
X39386309Y-66396130D02*
X39386309Y-65396130D01*
X39291071Y-65538988D01*
X39195833Y-65634226D01*
X39100595Y-65681845D01*
%TO.C,MX27*%
X169450595Y-66396130D02*
X169450595Y-65396130D01*
X169783928Y-66110416D01*
X170117261Y-65396130D01*
X170117261Y-66396130D01*
X170498214Y-65396130D02*
X171164880Y-66396130D01*
X171164880Y-65396130D02*
X170498214Y-66396130D01*
X171498214Y-65491369D02*
X171545833Y-65443750D01*
X171641071Y-65396130D01*
X171879166Y-65396130D01*
X171974404Y-65443750D01*
X172022023Y-65491369D01*
X172069642Y-65586607D01*
X172069642Y-65681845D01*
X172022023Y-65824702D01*
X171450595Y-66396130D01*
X172069642Y-66396130D01*
X172402976Y-65396130D02*
X173069642Y-65396130D01*
X172641071Y-66396130D01*
%TO.C,D11*%
X41162487Y-2398497D02*
X40455381Y-1691390D01*
X40623739Y-1523031D01*
X40758426Y-1455688D01*
X40893113Y-1455688D01*
X40994129Y-1489360D01*
X41162487Y-1590375D01*
X41263503Y-1691390D01*
X41364518Y-1859749D01*
X41398190Y-1960764D01*
X41398190Y-2095451D01*
X41330846Y-2230138D01*
X41162487Y-2398497D01*
X42239984Y-1321001D02*
X41835923Y-1725062D01*
X42037953Y-1523031D02*
X41330846Y-815924D01*
X41364518Y-984283D01*
X41364518Y-1118970D01*
X41330846Y-1219985D01*
X42913419Y-647566D02*
X42509358Y-1051627D01*
X42711388Y-849596D02*
X42004281Y-142489D01*
X42037953Y-310848D01*
X42037953Y-445535D01*
X42004281Y-546550D01*
%TO.C,MX13*%
X45625595Y-47346130D02*
X45625595Y-46346130D01*
X45958928Y-47060416D01*
X46292261Y-46346130D01*
X46292261Y-47346130D01*
X46673214Y-46346130D02*
X47339880Y-47346130D01*
X47339880Y-46346130D02*
X46673214Y-47346130D01*
X48244642Y-47346130D02*
X47673214Y-47346130D01*
X47958928Y-47346130D02*
X47958928Y-46346130D01*
X47863690Y-46488988D01*
X47768452Y-46584226D01*
X47673214Y-46631845D01*
X48577976Y-46346130D02*
X49197023Y-46346130D01*
X48863690Y-46727083D01*
X49006547Y-46727083D01*
X49101785Y-46774702D01*
X49149404Y-46822321D01*
X49197023Y-46917559D01*
X49197023Y-47155654D01*
X49149404Y-47250892D01*
X49101785Y-47298511D01*
X49006547Y-47346130D01*
X48720833Y-47346130D01*
X48625595Y-47298511D01*
X48577976Y-47250892D01*
%TO.C,MX2*%
X22289285Y-28296130D02*
X22289285Y-27296130D01*
X22622619Y-28010416D01*
X22955952Y-27296130D01*
X22955952Y-28296130D01*
X23336904Y-27296130D02*
X24003571Y-28296130D01*
X24003571Y-27296130D02*
X23336904Y-28296130D01*
X24336904Y-27391369D02*
X24384523Y-27343750D01*
X24479761Y-27296130D01*
X24717857Y-27296130D01*
X24813095Y-27343750D01*
X24860714Y-27391369D01*
X24908333Y-27486607D01*
X24908333Y-27581845D01*
X24860714Y-27724702D01*
X24289285Y-28296130D01*
X24908333Y-28296130D01*
%TO.C,MX7*%
X117539285Y-28296130D02*
X117539285Y-27296130D01*
X117872619Y-28010416D01*
X118205952Y-27296130D01*
X118205952Y-28296130D01*
X118586904Y-27296130D02*
X119253571Y-28296130D01*
X119253571Y-27296130D02*
X118586904Y-28296130D01*
X119539285Y-27296130D02*
X120205952Y-27296130D01*
X119777380Y-28296130D01*
%TO.C,D27*%
X104662487Y-2398497D02*
X103955381Y-1691390D01*
X104123739Y-1523031D01*
X104258426Y-1455688D01*
X104393113Y-1455688D01*
X104494129Y-1489360D01*
X104662487Y-1590375D01*
X104763503Y-1691390D01*
X104864518Y-1859749D01*
X104898190Y-1960764D01*
X104898190Y-2095451D01*
X104830846Y-2230138D01*
X104662487Y-2398497D01*
X104696159Y-1085298D02*
X104696159Y-1017955D01*
X104729831Y-916940D01*
X104898190Y-748581D01*
X104999205Y-714909D01*
X105066548Y-714909D01*
X105167564Y-748581D01*
X105234907Y-815924D01*
X105302251Y-950611D01*
X105302251Y-1758734D01*
X105739984Y-1321001D01*
X105268579Y-378192D02*
X105739984Y93212D01*
X106144045Y-916940D01*
%TO.C,D9*%
X33561705Y-2061779D02*
X32854598Y-1354673D01*
X33022957Y-1186314D01*
X33157644Y-1118970D01*
X33292331Y-1118970D01*
X33393346Y-1152642D01*
X33561705Y-1253657D01*
X33662720Y-1354673D01*
X33763736Y-1523031D01*
X33797407Y-1624047D01*
X33797407Y-1758734D01*
X33730064Y-1893421D01*
X33561705Y-2061779D01*
X34302484Y-1321001D02*
X34437171Y-1186314D01*
X34470842Y-1085298D01*
X34470842Y-1017955D01*
X34437171Y-849596D01*
X34336155Y-681237D01*
X34066781Y-411863D01*
X33965766Y-378192D01*
X33898423Y-378192D01*
X33797407Y-411863D01*
X33662720Y-546550D01*
X33629048Y-647566D01*
X33629048Y-714909D01*
X33662720Y-815924D01*
X33831079Y-984283D01*
X33932094Y-1017955D01*
X33999438Y-1017955D01*
X34100453Y-984283D01*
X34235140Y-849596D01*
X34268812Y-748581D01*
X34268812Y-681237D01*
X34235140Y-580222D01*
%TO.C,D25*%
X96724987Y-2398497D02*
X96017881Y-1691390D01*
X96186239Y-1523031D01*
X96320926Y-1455688D01*
X96455613Y-1455688D01*
X96556629Y-1489360D01*
X96724987Y-1590375D01*
X96826003Y-1691390D01*
X96927018Y-1859749D01*
X96960690Y-1960764D01*
X96960690Y-2095451D01*
X96893346Y-2230138D01*
X96724987Y-2398497D01*
X96758659Y-1085298D02*
X96758659Y-1017955D01*
X96792331Y-916940D01*
X96960690Y-748581D01*
X97061705Y-714909D01*
X97129048Y-714909D01*
X97230064Y-748581D01*
X97297407Y-815924D01*
X97364751Y-950611D01*
X97364751Y-1758734D01*
X97802484Y-1321001D01*
X97735140Y25868D02*
X97398423Y-310848D01*
X97701468Y-681237D01*
X97701468Y-613894D01*
X97735140Y-512879D01*
X97903499Y-344520D01*
X98004514Y-310848D01*
X98071858Y-310848D01*
X98172873Y-344520D01*
X98341232Y-512879D01*
X98374903Y-613894D01*
X98374903Y-681237D01*
X98341232Y-782253D01*
X98172873Y-950611D01*
X98071858Y-984283D01*
X98004514Y-984283D01*
%TO.C,MX26*%
X150400595Y-66396130D02*
X150400595Y-65396130D01*
X150733928Y-66110416D01*
X151067261Y-65396130D01*
X151067261Y-66396130D01*
X151448214Y-65396130D02*
X152114880Y-66396130D01*
X152114880Y-65396130D02*
X151448214Y-66396130D01*
X152448214Y-65491369D02*
X152495833Y-65443750D01*
X152591071Y-65396130D01*
X152829166Y-65396130D01*
X152924404Y-65443750D01*
X152972023Y-65491369D01*
X153019642Y-65586607D01*
X153019642Y-65681845D01*
X152972023Y-65824702D01*
X152400595Y-66396130D01*
X153019642Y-66396130D01*
X153876785Y-65396130D02*
X153686309Y-65396130D01*
X153591071Y-65443750D01*
X153543452Y-65491369D01*
X153448214Y-65634226D01*
X153400595Y-65824702D01*
X153400595Y-66205654D01*
X153448214Y-66300892D01*
X153495833Y-66348511D01*
X153591071Y-66396130D01*
X153781547Y-66396130D01*
X153876785Y-66348511D01*
X153924404Y-66300892D01*
X153972023Y-66205654D01*
X153972023Y-65967559D01*
X153924404Y-65872321D01*
X153876785Y-65824702D01*
X153781547Y-65777083D01*
X153591071Y-65777083D01*
X153495833Y-65824702D01*
X153448214Y-65872321D01*
X153400595Y-65967559D01*
%TO.C,MX11*%
X5050595Y-47346130D02*
X5050595Y-46346130D01*
X5383928Y-47060416D01*
X5717261Y-46346130D01*
X5717261Y-47346130D01*
X6098214Y-46346130D02*
X6764880Y-47346130D01*
X6764880Y-46346130D02*
X6098214Y-47346130D01*
X7669642Y-47346130D02*
X7098214Y-47346130D01*
X7383928Y-47346130D02*
X7383928Y-46346130D01*
X7288690Y-46488988D01*
X7193452Y-46584226D01*
X7098214Y-46631845D01*
X8622023Y-47346130D02*
X8050595Y-47346130D01*
X8336309Y-47346130D02*
X8336309Y-46346130D01*
X8241071Y-46488988D01*
X8145833Y-46584226D01*
X8050595Y-46631845D01*
%TO.C,J1*%
X207499404Y-41250892D02*
X207451785Y-41298511D01*
X207308928Y-41346130D01*
X207213690Y-41346130D01*
X207070833Y-41298511D01*
X206975595Y-41203273D01*
X206927976Y-41108035D01*
X206880357Y-40917559D01*
X206880357Y-40774702D01*
X206927976Y-40584226D01*
X206975595Y-40488988D01*
X207070833Y-40393750D01*
X207213690Y-40346130D01*
X207308928Y-40346130D01*
X207451785Y-40393750D01*
X207499404Y-40441369D01*
X208070833Y-41346130D02*
X207975595Y-41298511D01*
X207927976Y-41250892D01*
X207880357Y-41155654D01*
X207880357Y-40869940D01*
X207927976Y-40774702D01*
X207975595Y-40727083D01*
X208070833Y-40679464D01*
X208213690Y-40679464D01*
X208308928Y-40727083D01*
X208356547Y-40774702D01*
X208404166Y-40869940D01*
X208404166Y-41155654D01*
X208356547Y-41250892D01*
X208308928Y-41298511D01*
X208213690Y-41346130D01*
X208070833Y-41346130D01*
X208832738Y-40679464D02*
X208832738Y-41346130D01*
X208832738Y-40774702D02*
X208880357Y-40727083D01*
X208975595Y-40679464D01*
X209118452Y-40679464D01*
X209213690Y-40727083D01*
X209261309Y-40822321D01*
X209261309Y-41346130D01*
X209737500Y-40679464D02*
X209737500Y-41346130D01*
X209737500Y-40774702D02*
X209785119Y-40727083D01*
X209880357Y-40679464D01*
X210023214Y-40679464D01*
X210118452Y-40727083D01*
X210166071Y-40822321D01*
X210166071Y-41346130D01*
X210404166Y-41441369D02*
X211166071Y-41441369D01*
X211594642Y-40346130D02*
X211689880Y-40346130D01*
X211785119Y-40393750D01*
X211832738Y-40441369D01*
X211880357Y-40536607D01*
X211927976Y-40727083D01*
X211927976Y-40965178D01*
X211880357Y-41155654D01*
X211832738Y-41250892D01*
X211785119Y-41298511D01*
X211689880Y-41346130D01*
X211594642Y-41346130D01*
X211499404Y-41298511D01*
X211451785Y-41250892D01*
X211404166Y-41155654D01*
X211356547Y-40965178D01*
X211356547Y-40727083D01*
X211404166Y-40536607D01*
X211451785Y-40441369D01*
X211499404Y-40393750D01*
X211594642Y-40346130D01*
X212880357Y-41346130D02*
X212308928Y-41346130D01*
X212594642Y-41346130D02*
X212594642Y-40346130D01*
X212499404Y-40488988D01*
X212404166Y-40584226D01*
X212308928Y-40631845D01*
X213213690Y-41346130D02*
X213737500Y-40679464D01*
X213213690Y-40679464D02*
X213737500Y-41346130D01*
X214308928Y-40346130D02*
X214404166Y-40346130D01*
X214499404Y-40393750D01*
X214547023Y-40441369D01*
X214594642Y-40536607D01*
X214642261Y-40727083D01*
X214642261Y-40965178D01*
X214594642Y-41155654D01*
X214547023Y-41250892D01*
X214499404Y-41298511D01*
X214404166Y-41346130D01*
X214308928Y-41346130D01*
X214213690Y-41298511D01*
X214166071Y-41250892D01*
X214118452Y-41155654D01*
X214070833Y-40965178D01*
X214070833Y-40727083D01*
X214118452Y-40536607D01*
X214166071Y-40441369D01*
X214213690Y-40393750D01*
X214308928Y-40346130D01*
X215499404Y-40679464D02*
X215499404Y-41346130D01*
X215261309Y-40298511D02*
X215023214Y-41012797D01*
X215642261Y-41012797D01*
%TO.C,D22*%
X84818737Y-2398497D02*
X84111631Y-1691390D01*
X84279989Y-1523031D01*
X84414676Y-1455688D01*
X84549363Y-1455688D01*
X84650379Y-1489360D01*
X84818737Y-1590375D01*
X84919753Y-1691390D01*
X85020768Y-1859749D01*
X85054440Y-1960764D01*
X85054440Y-2095451D01*
X84987096Y-2230138D01*
X84818737Y-2398497D01*
X84852409Y-1085298D02*
X84852409Y-1017955D01*
X84886081Y-916940D01*
X85054440Y-748581D01*
X85155455Y-714909D01*
X85222798Y-714909D01*
X85323814Y-748581D01*
X85391157Y-815924D01*
X85458501Y-950611D01*
X85458501Y-1758734D01*
X85896234Y-1321001D01*
X85525844Y-411863D02*
X85525844Y-344520D01*
X85559516Y-243505D01*
X85727875Y-75146D01*
X85828890Y-41474D01*
X85896234Y-41474D01*
X85997249Y-75146D01*
X86064592Y-142489D01*
X86131936Y-277176D01*
X86131936Y-1085298D01*
X86569669Y-647566D01*
%TO.C,MX24*%
X112300595Y-66396130D02*
X112300595Y-65396130D01*
X112633928Y-66110416D01*
X112967261Y-65396130D01*
X112967261Y-66396130D01*
X113348214Y-65396130D02*
X114014880Y-66396130D01*
X114014880Y-65396130D02*
X113348214Y-66396130D01*
X114348214Y-65491369D02*
X114395833Y-65443750D01*
X114491071Y-65396130D01*
X114729166Y-65396130D01*
X114824404Y-65443750D01*
X114872023Y-65491369D01*
X114919642Y-65586607D01*
X114919642Y-65681845D01*
X114872023Y-65824702D01*
X114300595Y-66396130D01*
X114919642Y-66396130D01*
X115776785Y-65729464D02*
X115776785Y-66396130D01*
X115538690Y-65348511D02*
X115300595Y-66062797D01*
X115919642Y-66062797D01*
%TO.C,D14*%
X53068737Y-2398497D02*
X52361631Y-1691390D01*
X52529989Y-1523031D01*
X52664676Y-1455688D01*
X52799363Y-1455688D01*
X52900379Y-1489360D01*
X53068737Y-1590375D01*
X53169753Y-1691390D01*
X53270768Y-1859749D01*
X53304440Y-1960764D01*
X53304440Y-2095451D01*
X53237096Y-2230138D01*
X53068737Y-2398497D01*
X54146234Y-1321001D02*
X53742173Y-1725062D01*
X53944203Y-1523031D02*
X53237096Y-815924D01*
X53270768Y-984283D01*
X53270768Y-1118970D01*
X53237096Y-1219985D01*
X54280921Y-243505D02*
X54752325Y-714909D01*
X53843188Y-142489D02*
X54179905Y-815924D01*
X54617638Y-378192D01*
%TO.C,MX14*%
X64675595Y-47346130D02*
X64675595Y-46346130D01*
X65008928Y-47060416D01*
X65342261Y-46346130D01*
X65342261Y-47346130D01*
X65723214Y-46346130D02*
X66389880Y-47346130D01*
X66389880Y-46346130D02*
X65723214Y-47346130D01*
X67294642Y-47346130D02*
X66723214Y-47346130D01*
X67008928Y-47346130D02*
X67008928Y-46346130D01*
X66913690Y-46488988D01*
X66818452Y-46584226D01*
X66723214Y-46631845D01*
X68151785Y-46679464D02*
X68151785Y-47346130D01*
X67913690Y-46298511D02*
X67675595Y-47012797D01*
X68294642Y-47012797D01*
%TO.C,EC1*%
X204316071Y-63384226D02*
X204316071Y-63050892D01*
X204839880Y-62908035D02*
X204839880Y-63384226D01*
X203839880Y-63384226D01*
X203839880Y-62908035D01*
X204744642Y-61908035D02*
X204792261Y-61955654D01*
X204839880Y-62098511D01*
X204839880Y-62193750D01*
X204792261Y-62336607D01*
X204697023Y-62431845D01*
X204601785Y-62479464D01*
X204411309Y-62527083D01*
X204268452Y-62527083D01*
X204077976Y-62479464D01*
X203982738Y-62431845D01*
X203887500Y-62336607D01*
X203839880Y-62193750D01*
X203839880Y-62098511D01*
X203887500Y-61955654D01*
X203935119Y-61908035D01*
X204839880Y-60955654D02*
X204839880Y-61527083D01*
X204839880Y-61241369D02*
X203839880Y-61241369D01*
X203982738Y-61336607D01*
X204077976Y-61431845D01*
X204125595Y-61527083D01*
%TO.C,MX12*%
X26575595Y-47346130D02*
X26575595Y-46346130D01*
X26908928Y-47060416D01*
X27242261Y-46346130D01*
X27242261Y-47346130D01*
X27623214Y-46346130D02*
X28289880Y-47346130D01*
X28289880Y-46346130D02*
X27623214Y-47346130D01*
X29194642Y-47346130D02*
X28623214Y-47346130D01*
X28908928Y-47346130D02*
X28908928Y-46346130D01*
X28813690Y-46488988D01*
X28718452Y-46584226D01*
X28623214Y-46631845D01*
X29575595Y-46441369D02*
X29623214Y-46393750D01*
X29718452Y-46346130D01*
X29956547Y-46346130D01*
X30051785Y-46393750D01*
X30099404Y-46441369D01*
X30147023Y-46536607D01*
X30147023Y-46631845D01*
X30099404Y-46774702D01*
X29527976Y-47346130D01*
X30147023Y-47346130D01*
%TO.C,D23*%
X88787487Y-2398497D02*
X88080381Y-1691390D01*
X88248739Y-1523031D01*
X88383426Y-1455688D01*
X88518113Y-1455688D01*
X88619129Y-1489360D01*
X88787487Y-1590375D01*
X88888503Y-1691390D01*
X88989518Y-1859749D01*
X89023190Y-1960764D01*
X89023190Y-2095451D01*
X88955846Y-2230138D01*
X88787487Y-2398497D01*
X88821159Y-1085298D02*
X88821159Y-1017955D01*
X88854831Y-916940D01*
X89023190Y-748581D01*
X89124205Y-714909D01*
X89191548Y-714909D01*
X89292564Y-748581D01*
X89359907Y-815924D01*
X89427251Y-950611D01*
X89427251Y-1758734D01*
X89864984Y-1321001D01*
X89393579Y-378192D02*
X89831312Y59540D01*
X89864984Y-445535D01*
X89965999Y-344520D01*
X90067014Y-310848D01*
X90134358Y-310848D01*
X90235373Y-344520D01*
X90403732Y-512879D01*
X90437403Y-613894D01*
X90437403Y-681237D01*
X90403732Y-782253D01*
X90201701Y-984283D01*
X90100686Y-1017955D01*
X90033342Y-1017955D01*
%TO.C,D4*%
X13717955Y-2061779D02*
X13010848Y-1354673D01*
X13179207Y-1186314D01*
X13313894Y-1118970D01*
X13448581Y-1118970D01*
X13549596Y-1152642D01*
X13717955Y-1253657D01*
X13818970Y-1354673D01*
X13919986Y-1523031D01*
X13953657Y-1624047D01*
X13953657Y-1758734D01*
X13886314Y-1893421D01*
X13717955Y-2061779D01*
X14256703Y-580222D02*
X14728108Y-1051627D01*
X13818970Y-479207D02*
X14155688Y-1152642D01*
X14593421Y-714909D01*
%TO.C,D19*%
X72912487Y-2398497D02*
X72205381Y-1691390D01*
X72373739Y-1523031D01*
X72508426Y-1455688D01*
X72643113Y-1455688D01*
X72744129Y-1489360D01*
X72912487Y-1590375D01*
X73013503Y-1691390D01*
X73114518Y-1859749D01*
X73148190Y-1960764D01*
X73148190Y-2095451D01*
X73080846Y-2230138D01*
X72912487Y-2398497D01*
X73989984Y-1321001D02*
X73585923Y-1725062D01*
X73787953Y-1523031D02*
X73080846Y-815924D01*
X73114518Y-984283D01*
X73114518Y-1118970D01*
X73080846Y-1219985D01*
X74326701Y-984283D02*
X74461388Y-849596D01*
X74495060Y-748581D01*
X74495060Y-681237D01*
X74461388Y-512879D01*
X74360373Y-344520D01*
X74090999Y-75146D01*
X73989984Y-41474D01*
X73922640Y-41474D01*
X73821625Y-75146D01*
X73686938Y-209833D01*
X73653266Y-310848D01*
X73653266Y-378192D01*
X73686938Y-479207D01*
X73855297Y-647566D01*
X73956312Y-681237D01*
X74023655Y-681237D01*
X74124671Y-647566D01*
X74259358Y-512879D01*
X74293029Y-411863D01*
X74293029Y-344520D01*
X74259358Y-243505D01*
%TO.C,D21*%
X80849987Y-2398497D02*
X80142881Y-1691390D01*
X80311239Y-1523031D01*
X80445926Y-1455688D01*
X80580613Y-1455688D01*
X80681629Y-1489360D01*
X80849987Y-1590375D01*
X80951003Y-1691390D01*
X81052018Y-1859749D01*
X81085690Y-1960764D01*
X81085690Y-2095451D01*
X81018346Y-2230138D01*
X80849987Y-2398497D01*
X80883659Y-1085298D02*
X80883659Y-1017955D01*
X80917331Y-916940D01*
X81085690Y-748581D01*
X81186705Y-714909D01*
X81254048Y-714909D01*
X81355064Y-748581D01*
X81422407Y-815924D01*
X81489751Y-950611D01*
X81489751Y-1758734D01*
X81927484Y-1321001D01*
X82600919Y-647566D02*
X82196858Y-1051627D01*
X82398888Y-849596D02*
X81691781Y-142489D01*
X81725453Y-310848D01*
X81725453Y-445535D01*
X81691781Y-546550D01*
%TO.C,MX16*%
X102775595Y-47346130D02*
X102775595Y-46346130D01*
X103108928Y-47060416D01*
X103442261Y-46346130D01*
X103442261Y-47346130D01*
X103823214Y-46346130D02*
X104489880Y-47346130D01*
X104489880Y-46346130D02*
X103823214Y-47346130D01*
X105394642Y-47346130D02*
X104823214Y-47346130D01*
X105108928Y-47346130D02*
X105108928Y-46346130D01*
X105013690Y-46488988D01*
X104918452Y-46584226D01*
X104823214Y-46631845D01*
X106251785Y-46346130D02*
X106061309Y-46346130D01*
X105966071Y-46393750D01*
X105918452Y-46441369D01*
X105823214Y-46584226D01*
X105775595Y-46774702D01*
X105775595Y-47155654D01*
X105823214Y-47250892D01*
X105870833Y-47298511D01*
X105966071Y-47346130D01*
X106156547Y-47346130D01*
X106251785Y-47298511D01*
X106299404Y-47250892D01*
X106347023Y-47155654D01*
X106347023Y-46917559D01*
X106299404Y-46822321D01*
X106251785Y-46774702D01*
X106156547Y-46727083D01*
X105966071Y-46727083D01*
X105870833Y-46774702D01*
X105823214Y-46822321D01*
X105775595Y-46917559D01*
%TO.C,D8*%
X29592955Y-2061779D02*
X28885848Y-1354673D01*
X29054207Y-1186314D01*
X29188894Y-1118970D01*
X29323581Y-1118970D01*
X29424596Y-1152642D01*
X29592955Y-1253657D01*
X29693970Y-1354673D01*
X29794986Y-1523031D01*
X29828657Y-1624047D01*
X29828657Y-1758734D01*
X29761314Y-1893421D01*
X29592955Y-2061779D01*
X29997016Y-849596D02*
X29896001Y-883268D01*
X29828657Y-883268D01*
X29727642Y-849596D01*
X29693970Y-815924D01*
X29660298Y-714909D01*
X29660298Y-647566D01*
X29693970Y-546550D01*
X29828657Y-411863D01*
X29929673Y-378192D01*
X29997016Y-378192D01*
X30098031Y-411863D01*
X30131703Y-445535D01*
X30165375Y-546550D01*
X30165375Y-613894D01*
X30131703Y-714909D01*
X29997016Y-849596D01*
X29963344Y-950611D01*
X29963344Y-1017955D01*
X29997016Y-1118970D01*
X30131703Y-1253657D01*
X30232718Y-1287329D01*
X30300062Y-1287329D01*
X30401077Y-1253657D01*
X30535764Y-1118970D01*
X30569436Y-1017955D01*
X30569436Y-950611D01*
X30535764Y-849596D01*
X30401077Y-714909D01*
X30300062Y-681237D01*
X30232718Y-681237D01*
X30131703Y-714909D01*
%TO.C,D6*%
X21655455Y-2061779D02*
X20948348Y-1354673D01*
X21116707Y-1186314D01*
X21251394Y-1118970D01*
X21386081Y-1118970D01*
X21487096Y-1152642D01*
X21655455Y-1253657D01*
X21756470Y-1354673D01*
X21857486Y-1523031D01*
X21891157Y-1624047D01*
X21891157Y-1758734D01*
X21823814Y-1893421D01*
X21655455Y-2061779D01*
X21958501Y-344520D02*
X21823814Y-479207D01*
X21790142Y-580222D01*
X21790142Y-647566D01*
X21823814Y-815924D01*
X21924829Y-984283D01*
X22194203Y-1253657D01*
X22295218Y-1287329D01*
X22362562Y-1287329D01*
X22463577Y-1253657D01*
X22598264Y-1118970D01*
X22631936Y-1017955D01*
X22631936Y-950611D01*
X22598264Y-849596D01*
X22429905Y-681237D01*
X22328890Y-647566D01*
X22261547Y-647566D01*
X22160531Y-681237D01*
X22025844Y-815924D01*
X21992173Y-916940D01*
X21992173Y-984283D01*
X22025844Y-1085298D01*
%TO.C,D5*%
X17686705Y-2061779D02*
X16979598Y-1354673D01*
X17147957Y-1186314D01*
X17282644Y-1118970D01*
X17417331Y-1118970D01*
X17518346Y-1152642D01*
X17686705Y-1253657D01*
X17787720Y-1354673D01*
X17888736Y-1523031D01*
X17922407Y-1624047D01*
X17922407Y-1758734D01*
X17855064Y-1893421D01*
X17686705Y-2061779D01*
X18023423Y-310848D02*
X17686705Y-647566D01*
X17989751Y-1017955D01*
X17989751Y-950611D01*
X18023423Y-849596D01*
X18191781Y-681237D01*
X18292797Y-647566D01*
X18360140Y-647566D01*
X18461155Y-681237D01*
X18629514Y-849596D01*
X18663186Y-950611D01*
X18663186Y-1017955D01*
X18629514Y-1118970D01*
X18461155Y-1287329D01*
X18360140Y-1321001D01*
X18292797Y-1321001D01*
%TO.C,MX1*%
X3239285Y-28296130D02*
X3239285Y-27296130D01*
X3572619Y-28010416D01*
X3905952Y-27296130D01*
X3905952Y-28296130D01*
X4286904Y-27296130D02*
X4953571Y-28296130D01*
X4953571Y-27296130D02*
X4286904Y-28296130D01*
X5858333Y-28296130D02*
X5286904Y-28296130D01*
X5572619Y-28296130D02*
X5572619Y-27296130D01*
X5477380Y-27438988D01*
X5382142Y-27534226D01*
X5286904Y-27581845D01*
%TO.C,D26*%
X100693737Y-2398497D02*
X99986631Y-1691390D01*
X100154989Y-1523031D01*
X100289676Y-1455688D01*
X100424363Y-1455688D01*
X100525379Y-1489360D01*
X100693737Y-1590375D01*
X100794753Y-1691390D01*
X100895768Y-1859749D01*
X100929440Y-1960764D01*
X100929440Y-2095451D01*
X100862096Y-2230138D01*
X100693737Y-2398497D01*
X100727409Y-1085298D02*
X100727409Y-1017955D01*
X100761081Y-916940D01*
X100929440Y-748581D01*
X101030455Y-714909D01*
X101097798Y-714909D01*
X101198814Y-748581D01*
X101266157Y-815924D01*
X101333501Y-950611D01*
X101333501Y-1758734D01*
X101771234Y-1321001D01*
X101670218Y-7802D02*
X101535531Y-142489D01*
X101501860Y-243505D01*
X101501860Y-310848D01*
X101535531Y-479207D01*
X101636547Y-647566D01*
X101905921Y-916940D01*
X102006936Y-950611D01*
X102074279Y-950611D01*
X102175295Y-916940D01*
X102309982Y-782253D01*
X102343653Y-681237D01*
X102343653Y-613894D01*
X102309982Y-512879D01*
X102141623Y-344520D01*
X102040608Y-310848D01*
X101973264Y-310848D01*
X101872249Y-344520D01*
X101737562Y-479207D01*
X101703890Y-580222D01*
X101703890Y-647566D01*
X101737562Y-748581D01*
%TO.C,D15*%
X57037487Y-2398497D02*
X56330381Y-1691390D01*
X56498739Y-1523031D01*
X56633426Y-1455688D01*
X56768113Y-1455688D01*
X56869129Y-1489360D01*
X57037487Y-1590375D01*
X57138503Y-1691390D01*
X57239518Y-1859749D01*
X57273190Y-1960764D01*
X57273190Y-2095451D01*
X57205846Y-2230138D01*
X57037487Y-2398497D01*
X58114984Y-1321001D02*
X57710923Y-1725062D01*
X57912953Y-1523031D02*
X57205846Y-815924D01*
X57239518Y-984283D01*
X57239518Y-1118970D01*
X57205846Y-1219985D01*
X58047640Y25868D02*
X57710923Y-310848D01*
X58013968Y-681237D01*
X58013968Y-613894D01*
X58047640Y-512879D01*
X58215999Y-344520D01*
X58317014Y-310848D01*
X58384358Y-310848D01*
X58485373Y-344520D01*
X58653732Y-512879D01*
X58687403Y-613894D01*
X58687403Y-681237D01*
X58653732Y-782253D01*
X58485373Y-950611D01*
X58384358Y-984283D01*
X58317014Y-984283D01*
%TO.C,D18*%
X68943737Y-2398497D02*
X68236631Y-1691390D01*
X68404989Y-1523031D01*
X68539676Y-1455688D01*
X68674363Y-1455688D01*
X68775379Y-1489360D01*
X68943737Y-1590375D01*
X69044753Y-1691390D01*
X69145768Y-1859749D01*
X69179440Y-1960764D01*
X69179440Y-2095451D01*
X69112096Y-2230138D01*
X68943737Y-2398497D01*
X70021234Y-1321001D02*
X69617173Y-1725062D01*
X69819203Y-1523031D02*
X69112096Y-815924D01*
X69145768Y-984283D01*
X69145768Y-1118970D01*
X69112096Y-1219985D01*
X70021234Y-512879D02*
X69920218Y-546550D01*
X69852875Y-546550D01*
X69751860Y-512879D01*
X69718188Y-479207D01*
X69684516Y-378192D01*
X69684516Y-310848D01*
X69718188Y-209833D01*
X69852875Y-75146D01*
X69953890Y-41474D01*
X70021234Y-41474D01*
X70122249Y-75146D01*
X70155921Y-108818D01*
X70189592Y-209833D01*
X70189592Y-277176D01*
X70155921Y-378192D01*
X70021234Y-512879D01*
X69987562Y-613894D01*
X69987562Y-681237D01*
X70021234Y-782253D01*
X70155921Y-916940D01*
X70256936Y-950611D01*
X70324279Y-950611D01*
X70425295Y-916940D01*
X70559982Y-782253D01*
X70593653Y-681237D01*
X70593653Y-613894D01*
X70559982Y-512879D01*
X70425295Y-378192D01*
X70324279Y-344520D01*
X70256936Y-344520D01*
X70155921Y-378192D01*
D11*
%TO.C,MX6*%
X97775000Y-26843750D02*
X99775000Y-26843750D01*
X97775000Y-24843750D02*
X97775000Y-26843750D01*
X109775000Y-12843750D02*
X111775000Y-12843750D01*
X111775000Y-12843750D02*
X111775000Y-14843750D01*
%TO.C,MX9*%
X154925000Y-26843750D02*
X156925000Y-26843750D01*
X168925000Y-12843750D02*
X168925000Y-14843750D01*
X154925000Y-24843750D02*
X154925000Y-26843750D01*
X166925000Y-12843750D02*
X168925000Y-12843750D01*
%TO.C,MX3*%
X54625000Y-12843750D02*
X54625000Y-14843750D01*
X52625000Y-12843750D02*
X54625000Y-12843750D01*
X40625000Y-24843750D02*
X40625000Y-26843750D01*
X40625000Y-26843750D02*
X42625000Y-26843750D01*
%TO.C,MX8*%
X149875000Y-12843750D02*
X149875000Y-14843750D01*
X135875000Y-24843750D02*
X135875000Y-26843750D01*
X147875000Y-12843750D02*
X149875000Y-12843750D01*
X135875000Y-26843750D02*
X137875000Y-26843750D01*
%TO.C,MX5*%
X78725000Y-24843750D02*
X78725000Y-26843750D01*
X92725000Y-12843750D02*
X92725000Y-14843750D01*
X78725000Y-26843750D02*
X80725000Y-26843750D01*
X90725000Y-12843750D02*
X92725000Y-12843750D01*
%TO.C,MX10*%
X195118750Y-22368750D02*
X195118750Y-24368750D01*
X193118750Y-22368750D02*
X195118750Y-22368750D01*
X181118750Y-36368750D02*
X183118750Y-36368750D01*
X181118750Y-34368750D02*
X181118750Y-36368750D01*
D10*
%TO.C,U1*%
X220027500Y-107500D02*
X202247500Y-107500D01*
X214887500Y602500D02*
X214887500Y-107500D01*
X220027500Y-33407500D02*
X220027500Y-107500D01*
X220027500Y-33407500D02*
X202247500Y-33407500D01*
X207387500Y602500D02*
X207387500Y-107500D01*
X214887500Y602500D02*
X207387500Y602500D01*
X202247500Y-33407500D02*
X202247500Y-107500D01*
%TO.C,D20*%
X82192956Y-7407170D02*
X83607170Y-5992956D01*
X79894859Y-3694859D02*
X79541306Y-3341306D01*
X80601966Y-2987753D02*
X83607170Y-5992956D01*
X79187753Y-4401966D02*
X80601966Y-2987753D01*
X83430393Y-7230393D02*
X82900063Y-6700063D01*
X79187753Y-4401966D02*
X82192956Y-7407170D01*
X81839403Y-7053617D02*
X83253617Y-5639403D01*
X81662626Y-6876840D02*
X83076840Y-5462626D01*
X81733337Y-6947551D02*
X83147551Y-5533337D01*
D11*
%TO.C,MX23*%
X97487500Y-50943750D02*
X97487500Y-52943750D01*
X95487500Y-50943750D02*
X97487500Y-50943750D01*
X83487500Y-62943750D02*
X83487500Y-64943750D01*
X83487500Y-64943750D02*
X85487500Y-64943750D01*
%TO.C,MX19*%
X171687500Y-31893750D02*
X173687500Y-31893750D01*
X159687500Y-43893750D02*
X159687500Y-45893750D01*
X173687500Y-31893750D02*
X173687500Y-33893750D01*
X159687500Y-45893750D02*
X161687500Y-45893750D01*
D10*
%TO.C,D17*%
X69933153Y-7053617D02*
X71347367Y-5639403D01*
X67281503Y-4401966D02*
X68695716Y-2987753D01*
X70286706Y-7407170D02*
X71700920Y-5992956D01*
X69827087Y-6947551D02*
X71241301Y-5533337D01*
X68695716Y-2987753D02*
X71700920Y-5992956D01*
X67988609Y-3694859D02*
X67635056Y-3341306D01*
X69756376Y-6876840D02*
X71170590Y-5462626D01*
X67281503Y-4401966D02*
X70286706Y-7407170D01*
X71524143Y-7230393D02*
X70993813Y-6700063D01*
%TO.C,D2*%
X9164466Y-2987753D02*
X12169670Y-5992956D01*
X7750253Y-4401966D02*
X10755456Y-7407170D01*
X10225126Y-6876840D02*
X11639340Y-5462626D01*
X10295837Y-6947551D02*
X11710051Y-5533337D01*
X10755456Y-7407170D02*
X12169670Y-5992956D01*
X8457359Y-3694859D02*
X8103806Y-3341306D01*
X10401903Y-7053617D02*
X11816117Y-5639403D01*
X11992893Y-7230393D02*
X11462563Y-6700063D01*
X7750253Y-4401966D02*
X9164466Y-2987753D01*
D11*
%TO.C,MX4*%
X71675000Y-12843750D02*
X73675000Y-12843750D01*
X59675000Y-24843750D02*
X59675000Y-26843750D01*
X73675000Y-12843750D02*
X73675000Y-14843750D01*
X59675000Y-26843750D02*
X61675000Y-26843750D01*
D10*
%TO.C,D10*%
X43742893Y-7230393D02*
X43212563Y-6700063D01*
X39500253Y-4401966D02*
X42505456Y-7407170D01*
X39500253Y-4401966D02*
X40914466Y-2987753D01*
X42151903Y-7053617D02*
X43566117Y-5639403D01*
X40207359Y-3694859D02*
X39853806Y-3341306D01*
X40914466Y-2987753D02*
X43919670Y-5992956D01*
X42045837Y-6947551D02*
X43460051Y-5533337D01*
X41975126Y-6876840D02*
X43389340Y-5462626D01*
X42505456Y-7407170D02*
X43919670Y-5992956D01*
%TO.C,D28*%
X113589403Y-7053617D02*
X115003617Y-5639403D01*
X110937753Y-4401966D02*
X112351966Y-2987753D01*
X112351966Y-2987753D02*
X115357170Y-5992956D01*
X115180393Y-7230393D02*
X114650063Y-6700063D01*
X113483337Y-6947551D02*
X114897551Y-5533337D01*
X113942956Y-7407170D02*
X115357170Y-5992956D01*
X110937753Y-4401966D02*
X113942956Y-7407170D01*
X113412626Y-6876840D02*
X114826840Y-5462626D01*
X111644859Y-3694859D02*
X111291306Y-3341306D01*
%TO.C,D13*%
X52820716Y-2987753D02*
X55825920Y-5992956D01*
X55649143Y-7230393D02*
X55118813Y-6700063D01*
X51406503Y-4401966D02*
X52820716Y-2987753D01*
X51406503Y-4401966D02*
X54411706Y-7407170D01*
X52113609Y-3694859D02*
X51760056Y-3341306D01*
X54411706Y-7407170D02*
X55825920Y-5992956D01*
X54058153Y-7053617D02*
X55472367Y-5639403D01*
X53952087Y-6947551D02*
X55366301Y-5533337D01*
X53881376Y-6876840D02*
X55295590Y-5462626D01*
%TO.C,D7*%
X27594003Y-4401966D02*
X30599206Y-7407170D01*
X29008216Y-2987753D02*
X32013420Y-5992956D01*
X28301109Y-3694859D02*
X27947556Y-3341306D01*
X30245653Y-7053617D02*
X31659867Y-5639403D01*
X30599206Y-7407170D02*
X32013420Y-5992956D01*
X30068876Y-6876840D02*
X31483090Y-5462626D01*
X30139587Y-6947551D02*
X31553801Y-5533337D01*
X27594003Y-4401966D02*
X29008216Y-2987753D01*
X31836643Y-7230393D02*
X31306313Y-6700063D01*
D11*
%TO.C,MX22*%
X66912500Y-50943750D02*
X68912500Y-50943750D01*
X68912500Y-50943750D02*
X68912500Y-52943750D01*
X54912500Y-62943750D02*
X54912500Y-64943750D01*
X54912500Y-64943750D02*
X56912500Y-64943750D01*
D10*
%TO.C,D3*%
X11719003Y-4401966D02*
X13133216Y-2987753D01*
X14264587Y-6947551D02*
X15678801Y-5533337D01*
X15961643Y-7230393D02*
X15431313Y-6700063D01*
X13133216Y-2987753D02*
X16138420Y-5992956D01*
X14370653Y-7053617D02*
X15784867Y-5639403D01*
X12426109Y-3694859D02*
X12072556Y-3341306D01*
X14724206Y-7407170D02*
X16138420Y-5992956D01*
X11719003Y-4401966D02*
X14724206Y-7407170D01*
X14193876Y-6876840D02*
X15608090Y-5462626D01*
%TO.C,D1*%
X6786706Y-7407170D02*
X8200920Y-5992956D01*
X4488609Y-3694859D02*
X4135056Y-3341306D01*
X6433153Y-7053617D02*
X7847367Y-5639403D01*
X8024143Y-7230393D02*
X7493813Y-6700063D01*
X3781503Y-4401966D02*
X6786706Y-7407170D01*
X6327087Y-6947551D02*
X7741301Y-5533337D01*
X5195716Y-2987753D02*
X8200920Y-5992956D01*
X3781503Y-4401966D02*
X5195716Y-2987753D01*
X6256376Y-6876840D02*
X7670590Y-5462626D01*
%TO.C,D12*%
X47437753Y-4401966D02*
X50442956Y-7407170D01*
X51680393Y-7230393D02*
X51150063Y-6700063D01*
X49912626Y-6876840D02*
X51326840Y-5462626D01*
X49983337Y-6947551D02*
X51397551Y-5533337D01*
X47437753Y-4401966D02*
X48851966Y-2987753D01*
X50089403Y-7053617D02*
X51503617Y-5639403D01*
X48851966Y-2987753D02*
X51857170Y-5992956D01*
X48144859Y-3694859D02*
X47791306Y-3341306D01*
X50442956Y-7407170D02*
X51857170Y-5992956D01*
D11*
%TO.C,MX18*%
X140637500Y-43893750D02*
X140637500Y-45893750D01*
X154637500Y-31893750D02*
X154637500Y-33893750D01*
X152637500Y-31893750D02*
X154637500Y-31893750D01*
X140637500Y-45893750D02*
X142637500Y-45893750D01*
D10*
%TO.C,D24*%
X97537626Y-6876840D02*
X98951840Y-5462626D01*
X95062753Y-4401966D02*
X96476966Y-2987753D01*
X97608337Y-6947551D02*
X99022551Y-5533337D01*
X96476966Y-2987753D02*
X99482170Y-5992956D01*
X98067956Y-7407170D02*
X99482170Y-5992956D01*
X95062753Y-4401966D02*
X98067956Y-7407170D01*
X95769859Y-3694859D02*
X95416306Y-3341306D01*
X99305393Y-7230393D02*
X98775063Y-6700063D01*
X97714403Y-7053617D02*
X99128617Y-5639403D01*
%TO.C,D16*%
X67555393Y-7230393D02*
X67025063Y-6700063D01*
X65787626Y-6876840D02*
X67201840Y-5462626D01*
X64726966Y-2987753D02*
X67732170Y-5992956D01*
X66317956Y-7407170D02*
X67732170Y-5992956D01*
X65858337Y-6947551D02*
X67272551Y-5533337D01*
X64019859Y-3694859D02*
X63666306Y-3341306D01*
X63312753Y-4401966D02*
X66317956Y-7407170D01*
X65964403Y-7053617D02*
X67378617Y-5639403D01*
X63312753Y-4401966D02*
X64726966Y-2987753D01*
D11*
%TO.C,MX20*%
X16812500Y-62943750D02*
X16812500Y-64943750D01*
X16812500Y-64943750D02*
X18812500Y-64943750D01*
X28812500Y-50943750D02*
X30812500Y-50943750D01*
X30812500Y-50943750D02*
X30812500Y-52943750D01*
%TO.C,MX25*%
X131112500Y-64943750D02*
X133112500Y-64943750D01*
X131112500Y-62943750D02*
X131112500Y-64943750D01*
X145112500Y-50943750D02*
X145112500Y-52943750D01*
X143112500Y-50943750D02*
X145112500Y-50943750D01*
%TO.C,MX15*%
X97487500Y-31893750D02*
X97487500Y-33893750D01*
X83487500Y-43893750D02*
X83487500Y-45893750D01*
X83487500Y-45893750D02*
X85487500Y-45893750D01*
X95487500Y-31893750D02*
X97487500Y-31893750D01*
%TO.C,MX17*%
X135587500Y-31893750D02*
X135587500Y-33893750D01*
X121587500Y-43893750D02*
X121587500Y-45893750D01*
X121587500Y-45893750D02*
X123587500Y-45893750D01*
X133587500Y-31893750D02*
X135587500Y-31893750D01*
%TO.C,MX21*%
X35862500Y-64943750D02*
X37862500Y-64943750D01*
X35862500Y-62943750D02*
X35862500Y-64943750D01*
X49862500Y-50943750D02*
X49862500Y-52943750D01*
X47862500Y-50943750D02*
X49862500Y-50943750D01*
%TO.C,MX27*%
X169212500Y-62943750D02*
X169212500Y-64943750D01*
X183212500Y-50943750D02*
X183212500Y-52943750D01*
X181212500Y-50943750D02*
X183212500Y-50943750D01*
X169212500Y-64943750D02*
X171212500Y-64943750D01*
D10*
%TO.C,D11*%
X44883216Y-2987753D02*
X47888420Y-5992956D01*
X43469003Y-4401966D02*
X46474206Y-7407170D01*
X44176109Y-3694859D02*
X43822556Y-3341306D01*
X45943876Y-6876840D02*
X47358090Y-5462626D01*
X43469003Y-4401966D02*
X44883216Y-2987753D01*
X46474206Y-7407170D02*
X47888420Y-5992956D01*
X46120653Y-7053617D02*
X47534867Y-5639403D01*
X46014587Y-6947551D02*
X47428801Y-5533337D01*
X47711643Y-7230393D02*
X47181313Y-6700063D01*
D11*
%TO.C,MX13*%
X59387500Y-31893750D02*
X59387500Y-33893750D01*
X45387500Y-43893750D02*
X45387500Y-45893750D01*
X57387500Y-31893750D02*
X59387500Y-31893750D01*
X45387500Y-45893750D02*
X47387500Y-45893750D01*
%TO.C,MX2*%
X21575000Y-24843750D02*
X21575000Y-26843750D01*
X21575000Y-26843750D02*
X23575000Y-26843750D01*
X33575000Y-12843750D02*
X35575000Y-12843750D01*
X35575000Y-12843750D02*
X35575000Y-14843750D01*
%TO.C,MX7*%
X116825000Y-24843750D02*
X116825000Y-26843750D01*
X128825000Y-12843750D02*
X130825000Y-12843750D01*
X130825000Y-12843750D02*
X130825000Y-14843750D01*
X116825000Y-26843750D02*
X118825000Y-26843750D01*
D10*
%TO.C,D27*%
X107676109Y-3694859D02*
X107322556Y-3341306D01*
X109443876Y-6876840D02*
X110858090Y-5462626D01*
X106969003Y-4401966D02*
X109974206Y-7407170D01*
X109514587Y-6947551D02*
X110928801Y-5533337D01*
X108383216Y-2987753D02*
X111388420Y-5992956D01*
X106969003Y-4401966D02*
X108383216Y-2987753D01*
X109974206Y-7407170D02*
X111388420Y-5992956D01*
X109620653Y-7053617D02*
X111034867Y-5639403D01*
X111211643Y-7230393D02*
X110681313Y-6700063D01*
%TO.C,D9*%
X38006376Y-6876840D02*
X39420590Y-5462626D01*
X38077087Y-6947551D02*
X39491301Y-5533337D01*
X38536706Y-7407170D02*
X39950920Y-5992956D01*
X38183153Y-7053617D02*
X39597367Y-5639403D01*
X39774143Y-7230393D02*
X39243813Y-6700063D01*
X36238609Y-3694859D02*
X35885056Y-3341306D01*
X36945716Y-2987753D02*
X39950920Y-5992956D01*
X35531503Y-4401966D02*
X38536706Y-7407170D01*
X35531503Y-4401966D02*
X36945716Y-2987753D01*
%TO.C,D25*%
X101683153Y-7053617D02*
X103097367Y-5639403D01*
X99738609Y-3694859D02*
X99385056Y-3341306D01*
X103274143Y-7230393D02*
X102743813Y-6700063D01*
X101577087Y-6947551D02*
X102991301Y-5533337D01*
X100445716Y-2987753D02*
X103450920Y-5992956D01*
X99031503Y-4401966D02*
X102036706Y-7407170D01*
X101506376Y-6876840D02*
X102920590Y-5462626D01*
X102036706Y-7407170D02*
X103450920Y-5992956D01*
X99031503Y-4401966D02*
X100445716Y-2987753D01*
D11*
%TO.C,MX26*%
X164162500Y-50943750D02*
X164162500Y-52943750D01*
X150162500Y-64943750D02*
X152162500Y-64943750D01*
X162162500Y-50943750D02*
X164162500Y-50943750D01*
X150162500Y-62943750D02*
X150162500Y-64943750D01*
%TO.C,MX11*%
X4906250Y-45893750D02*
X6906250Y-45893750D01*
X4906250Y-43893750D02*
X4906250Y-45893750D01*
X18906250Y-31893750D02*
X18906250Y-33893750D01*
X16906250Y-31893750D02*
X18906250Y-31893750D01*
%TO.C,J1*%
X206387500Y-39893750D02*
X206387500Y-37893750D01*
X206387500Y-37893750D02*
X215887500Y-37893750D01*
X215887500Y-37893750D02*
X215887500Y-39893750D01*
X215887500Y-39893750D02*
X206387500Y-39893750D01*
D10*
%TO.C,D22*%
X89776903Y-7053617D02*
X91191117Y-5639403D01*
X87125253Y-4401966D02*
X88539466Y-2987753D01*
X89600126Y-6876840D02*
X91014340Y-5462626D01*
X87125253Y-4401966D02*
X90130456Y-7407170D01*
X90130456Y-7407170D02*
X91544670Y-5992956D01*
X89670837Y-6947551D02*
X91085051Y-5533337D01*
X91367893Y-7230393D02*
X90837563Y-6700063D01*
X87832359Y-3694859D02*
X87478806Y-3341306D01*
X88539466Y-2987753D02*
X91544670Y-5992956D01*
D11*
%TO.C,MX24*%
X112062500Y-62943750D02*
X112062500Y-64943750D01*
X126062500Y-50943750D02*
X126062500Y-52943750D01*
X124062500Y-50943750D02*
X126062500Y-50943750D01*
X112062500Y-64943750D02*
X114062500Y-64943750D01*
D10*
%TO.C,D14*%
X58026903Y-7053617D02*
X59441117Y-5639403D01*
X57850126Y-6876840D02*
X59264340Y-5462626D01*
X57920837Y-6947551D02*
X59335051Y-5533337D01*
X59617893Y-7230393D02*
X59087563Y-6700063D01*
X56082359Y-3694859D02*
X55728806Y-3341306D01*
X55375253Y-4401966D02*
X56789466Y-2987753D01*
X55375253Y-4401966D02*
X58380456Y-7407170D01*
X56789466Y-2987753D02*
X59794670Y-5992956D01*
X58380456Y-7407170D02*
X59794670Y-5992956D01*
D11*
%TO.C,MX14*%
X64437500Y-45893750D02*
X66437500Y-45893750D01*
X78437500Y-31893750D02*
X78437500Y-33893750D01*
X64437500Y-43893750D02*
X64437500Y-45893750D01*
X76437500Y-31893750D02*
X78437500Y-31893750D01*
%TO.C,EC1*%
X214137500Y-57943750D02*
G75*
G03*
X214137500Y-57943750I-3000000J0D01*
G01*
X205237500Y-51843750D02*
X207637500Y-51843750D01*
X211137500Y-58443750D02*
X211137500Y-57443750D01*
X205237500Y-64043750D02*
X217037500Y-64043750D01*
X205237500Y-59943750D02*
X205237500Y-64043750D01*
X209837500Y-51843750D02*
X212437500Y-51843750D01*
X214637500Y-51843750D02*
X217037500Y-51843750D01*
X207037500Y-65143750D02*
X207337500Y-65443750D01*
X205237500Y-55943750D02*
X205237500Y-51843750D01*
X207037500Y-65743750D02*
X207037500Y-65143750D01*
X217037500Y-51843750D02*
X217037500Y-55943750D01*
X207337500Y-65443750D02*
X207037500Y-65743750D01*
X210637500Y-57943750D02*
X211637500Y-57943750D01*
X217037500Y-59943750D02*
X217037500Y-64043750D01*
%TO.C,MX12*%
X26337500Y-45893750D02*
X28337500Y-45893750D01*
X38337500Y-31893750D02*
X40337500Y-31893750D01*
X26337500Y-43893750D02*
X26337500Y-45893750D01*
X40337500Y-31893750D02*
X40337500Y-33893750D01*
D10*
%TO.C,D23*%
X91094003Y-4401966D02*
X92508216Y-2987753D01*
X92508216Y-2987753D02*
X95513420Y-5992956D01*
X93639587Y-6947551D02*
X95053801Y-5533337D01*
X95336643Y-7230393D02*
X94806313Y-6700063D01*
X93568876Y-6876840D02*
X94983090Y-5462626D01*
X91801109Y-3694859D02*
X91447556Y-3341306D01*
X91094003Y-4401966D02*
X94099206Y-7407170D01*
X93745653Y-7053617D02*
X95159867Y-5639403D01*
X94099206Y-7407170D02*
X95513420Y-5992956D01*
%TO.C,D4*%
X15687753Y-4401966D02*
X17101966Y-2987753D01*
X18162626Y-6876840D02*
X19576840Y-5462626D01*
X18233337Y-6947551D02*
X19647551Y-5533337D01*
X18339403Y-7053617D02*
X19753617Y-5639403D01*
X19930393Y-7230393D02*
X19400063Y-6700063D01*
X18692956Y-7407170D02*
X20107170Y-5992956D01*
X16394859Y-3694859D02*
X16041306Y-3341306D01*
X15687753Y-4401966D02*
X18692956Y-7407170D01*
X17101966Y-2987753D02*
X20107170Y-5992956D01*
%TO.C,D19*%
X77693876Y-6876840D02*
X79108090Y-5462626D01*
X76633216Y-2987753D02*
X79638420Y-5992956D01*
X75219003Y-4401966D02*
X78224206Y-7407170D01*
X79461643Y-7230393D02*
X78931313Y-6700063D01*
X75219003Y-4401966D02*
X76633216Y-2987753D01*
X77764587Y-6947551D02*
X79178801Y-5533337D01*
X77870653Y-7053617D02*
X79284867Y-5639403D01*
X75926109Y-3694859D02*
X75572556Y-3341306D01*
X78224206Y-7407170D02*
X79638420Y-5992956D01*
%TO.C,D21*%
X86161706Y-7407170D02*
X87575920Y-5992956D01*
X87399143Y-7230393D02*
X86868813Y-6700063D01*
X83156503Y-4401966D02*
X86161706Y-7407170D01*
X85631376Y-6876840D02*
X87045590Y-5462626D01*
X83156503Y-4401966D02*
X84570716Y-2987753D01*
X83863609Y-3694859D02*
X83510056Y-3341306D01*
X85808153Y-7053617D02*
X87222367Y-5639403D01*
X85702087Y-6947551D02*
X87116301Y-5533337D01*
X84570716Y-2987753D02*
X87575920Y-5992956D01*
D11*
%TO.C,MX16*%
X102537500Y-43893750D02*
X102537500Y-45893750D01*
X116537500Y-31893750D02*
X116537500Y-33893750D01*
X114537500Y-31893750D02*
X116537500Y-31893750D01*
X102537500Y-45893750D02*
X104537500Y-45893750D01*
D10*
%TO.C,D8*%
X35805393Y-7230393D02*
X35275063Y-6700063D01*
X34108337Y-6947551D02*
X35522551Y-5533337D01*
X34214403Y-7053617D02*
X35628617Y-5639403D01*
X34037626Y-6876840D02*
X35451840Y-5462626D01*
X31562753Y-4401966D02*
X34567956Y-7407170D01*
X32976966Y-2987753D02*
X35982170Y-5992956D01*
X34567956Y-7407170D02*
X35982170Y-5992956D01*
X32269859Y-3694859D02*
X31916306Y-3341306D01*
X31562753Y-4401966D02*
X32976966Y-2987753D01*
%TO.C,D6*%
X24332359Y-3694859D02*
X23978806Y-3341306D01*
X26100126Y-6876840D02*
X27514340Y-5462626D01*
X26630456Y-7407170D02*
X28044670Y-5992956D01*
X23625253Y-4401966D02*
X25039466Y-2987753D01*
X27867893Y-7230393D02*
X27337563Y-6700063D01*
X23625253Y-4401966D02*
X26630456Y-7407170D01*
X26170837Y-6947551D02*
X27585051Y-5533337D01*
X26276903Y-7053617D02*
X27691117Y-5639403D01*
X25039466Y-2987753D02*
X28044670Y-5992956D01*
%TO.C,D5*%
X22202087Y-6947551D02*
X23616301Y-5533337D01*
X21070716Y-2987753D02*
X24075920Y-5992956D01*
X20363609Y-3694859D02*
X20010056Y-3341306D01*
X22131376Y-6876840D02*
X23545590Y-5462626D01*
X22661706Y-7407170D02*
X24075920Y-5992956D01*
X22308153Y-7053617D02*
X23722367Y-5639403D01*
X23899143Y-7230393D02*
X23368813Y-6700063D01*
X19656503Y-4401966D02*
X21070716Y-2987753D01*
X19656503Y-4401966D02*
X22661706Y-7407170D01*
D11*
%TO.C,MX1*%
X2525000Y-24843750D02*
X2525000Y-26843750D01*
X14525000Y-12843750D02*
X16525000Y-12843750D01*
X16525000Y-12843750D02*
X16525000Y-14843750D01*
X2525000Y-26843750D02*
X4525000Y-26843750D01*
D10*
%TO.C,D26*%
X105545837Y-6947551D02*
X106960051Y-5533337D01*
X105651903Y-7053617D02*
X107066117Y-5639403D01*
X103000253Y-4401966D02*
X106005456Y-7407170D01*
X107242893Y-7230393D02*
X106712563Y-6700063D01*
X103000253Y-4401966D02*
X104414466Y-2987753D01*
X106005456Y-7407170D02*
X107419670Y-5992956D01*
X103707359Y-3694859D02*
X103353806Y-3341306D01*
X104414466Y-2987753D02*
X107419670Y-5992956D01*
X105475126Y-6876840D02*
X106889340Y-5462626D01*
%TO.C,D15*%
X61818876Y-6876840D02*
X63233090Y-5462626D01*
X60758216Y-2987753D02*
X63763420Y-5992956D01*
X61995653Y-7053617D02*
X63409867Y-5639403D01*
X60051109Y-3694859D02*
X59697556Y-3341306D01*
X61889587Y-6947551D02*
X63303801Y-5533337D01*
X62349206Y-7407170D02*
X63763420Y-5992956D01*
X59344003Y-4401966D02*
X62349206Y-7407170D01*
X59344003Y-4401966D02*
X60758216Y-2987753D01*
X63586643Y-7230393D02*
X63056313Y-6700063D01*
%TO.C,D18*%
X71250253Y-4401966D02*
X72664466Y-2987753D01*
X72664466Y-2987753D02*
X75669670Y-5992956D01*
X73901903Y-7053617D02*
X75316117Y-5639403D01*
X75492893Y-7230393D02*
X74962563Y-6700063D01*
X71957359Y-3694859D02*
X71603806Y-3341306D01*
X74255456Y-7407170D02*
X75669670Y-5992956D01*
X73725126Y-6876840D02*
X75139340Y-5462626D01*
X71250253Y-4401966D02*
X74255456Y-7407170D01*
X73795837Y-6947551D02*
X75210051Y-5533337D01*
%TD*%
M02*
