M48
METRIC,TZ
T1C1.750
T2C3.000
T3C3.048
T4C3.988
%
G90
G05
T1
X4445Y-19844
X6826Y-38894
X14605Y-19844
X16986Y-38894
X18733Y-57944
X23495Y-19844
X28258Y-38894
X28892Y-57944
X33655Y-19844
X37783Y-57944
X38417Y-38894
X42545Y-19844
X47308Y-38894
X47943Y-57944
X52705Y-19844
X56832Y-57944
X57468Y-38894
X61595Y-19844
X66358Y-38894
X66993Y-57944
X71755Y-19844
X76518Y-38894
X80645Y-19844
X85408Y-38894
X85408Y-57944
X90805Y-19844
X95568Y-38894
X95568Y-57944
X99695Y-19844
X104458Y-38894
X109855Y-19844
X113983Y-57944
X114618Y-38894
X118745Y-19844
X123507Y-38894
X124143Y-57944
X128905Y-19844
X133033Y-57944
X133668Y-38894
X137795Y-19844
X142558Y-38894
X143193Y-57944
X147955Y-19844
X152082Y-57944
X152718Y-38894
X156845Y-19844
X161607Y-38894
X162243Y-57944
X167005Y-19844
X171133Y-57944
X171767Y-38894
X181293Y-57944
X183039Y-29369
X193199Y-29369
T2
X5715Y-17304
X8096Y-36354
X12065Y-14764
X14446Y-33814
X20002Y-55404
X24765Y-17304
X26353Y-52864
X29528Y-36354
X31115Y-14764
X35878Y-33814
X39053Y-55404
X43815Y-17304
X45403Y-52864
X48578Y-36354
X50165Y-14764
X54928Y-33814
X58103Y-55404
X62865Y-17304
X64453Y-52864
X67628Y-36354
X69215Y-14764
X73977Y-33814
X81915Y-17304
X86678Y-36354
X86678Y-55404
X88265Y-14764
X93027Y-33814
X93027Y-52864
X100965Y-17304
X105727Y-36354
X107315Y-14764
X112078Y-33814
X115253Y-55404
X120015Y-17304
X121602Y-52864
X124777Y-36354
X126365Y-14764
X131128Y-33814
X134302Y-55404
X139065Y-17304
X140653Y-52864
X143827Y-36354
X145415Y-14764
X150177Y-33814
X153352Y-55404
X158115Y-17304
X159702Y-52864
X162878Y-36354
X164465Y-14764
X169228Y-33814
X172403Y-55404
X178753Y-52864
X184309Y-26829
X190659Y-24289
T3
X78549Y-64929
X102426Y-64929
X181134Y-17431
X181134Y-41307
T4
X9525Y-19844
X11906Y-38894
X23813Y-57944
X28575Y-19844
X33338Y-38894
X42863Y-57944
X47625Y-19844
X52388Y-38894
X61913Y-57944
X66675Y-19844
X71438Y-38894
X78549Y-49689
X85725Y-19844
X90488Y-38894
X90488Y-57944
X102426Y-49689
X104775Y-19844
X109538Y-38894
X119063Y-57944
X123825Y-19844
X128588Y-38894
X138112Y-57944
X142875Y-19844
X147638Y-38894
X157163Y-57944
X161925Y-19844
X166688Y-38894
X176213Y-57944
X188119Y-29369
X196374Y-17431
X196374Y-41307
T0
M30
